<?xml version="1.0" standalone="no"?>
<!DOCTYPE svg PUBLIC "-//W3C//DTD SVG 20010904//EN"
 "http://www.w3.org/TR/2001/REC-SVG-20010904/DTD/svg10.dtd">
<svg version="1.0" xmlns="http://www.w3.org/2000/svg"
 width="300.000000pt" height="300.000000pt" viewBox="0 0 300.000000 300.000000"
 preserveAspectRatio="xMidYMid meet">
<metadata>
Created by potrace 1.11, written by Peter Selinger 2001-2013
</metadata>
<g transform="translate(0.000000,300.000000) scale(0.100000,-0.100000)"
fill="#000000" stroke="none">
<path d="M1410 2863 c-64 -8 -161 -39 -225 -70 -118 -59 -202 -135 -281 -254
-116 -178 -141 -414 -64 -619 l23 -60 46 42 c26 24 63 57 84 73 l37 30 -14 58
c-19 75 -13 186 13 261 57 163 200 289 369 325 295 63 584 -158 596 -458 2
-41 -3 -100 -10 -131 l-14 -55 32 -25 c17 -14 53 -45 80 -69 29 -27 52 -41 58
-35 4 5 17 36 28 69 84 251 19 529 -168 715 -149 150 -382 230 -590 203z"/>
<path d="M1409 1966 c-2 -2 -20 -7 -39 -10 -182 -29 -374 -173 -459 -347 -52
-108 -71 -183 -72 -290 -2 -303 193 -561 488 -644 51 -14 73 -17 158 -20 314
-10 589 204 661 513 82 354 -149 709 -511 788 -55 12 -216 19 -226 10z m126
-207 c185 -11 345 -141 405 -332 6 -21 12 -73 12 -115 0 -405 -495 -604 -779
-312 -82 85 -126 194 -125 315 1 214 151 394 365 439 34 7 64 12 67 10 3 -1
28 -3 55 -5z"/>
<path d="M1460 1518 c-86 -15 -162 -96 -173 -183 -9 -75 30 -156 98 -203 35
-23 50 -27 115 -27 66 0 80 3 118 29 162 110 104 359 -91 389 -12 2 -42 0 -67
-5z"/>
<path d="M598 1565 c-320 -78 -546 -379 -532 -710 13 -312 216 -562 529 -652
61 -17 226 -25 280 -13 22 5 53 11 68 14 49 9 119 38 187 79 73 43 174 132
166 145 -3 5 -27 15 -53 22 -27 7 -70 24 -96 36 l-49 23 -52 -34 c-299 -199
-705 -25 -767 329 -37 213 78 429 277 523 44 20 80 37 81 37 1 1 4 22 7 47 3
26 14 74 25 108 22 70 24 69 -71 46z"/>
<path d="M2332 1518 c19 -61 24 -89 27 -134 1 -16 13 -26 49 -39 202 -76 337
-286 318 -497 -24 -273 -252 -472 -521 -455 -94 5 -170 30 -249 81 -54 35 -58
36 -84 21 -41 -23 -130 -55 -152 -55 -30 0 -24 -16 21 -60 70 -67 170 -127
268 -160 284 -95 599 1 786 241 63 80 117 207 133 313 11 68 6 205 -9 271 -12
52 -89 223 -111 246 -7 8 -28 32 -47 53 -89 104 -215 182 -347 216 -109 28
-105 30 -82 -42z"/>
</g>
</svg>
