<?xml version="1.0" encoding="UTF-8" standalone="no"?>
<!-- Created with Inkscape (http://www.inkscape.org/) -->

<svg
   xmlns:dc="http://purl.org/dc/elements/1.1/"
   xmlns:cc="http://creativecommons.org/ns#"
   xmlns:rdf="http://www.w3.org/1999/02/22-rdf-syntax-ns#"
   xmlns:svg="http://www.w3.org/2000/svg"
   xmlns="http://www.w3.org/2000/svg"
   xmlns:sodipodi="http://sodipodi.sourceforge.net/DTD/sodipodi-0.dtd"
   xmlns:inkscape="http://www.inkscape.org/namespaces/inkscape"
   width="52.916668mm"
   height="11.471057mm"
   viewBox="0 0 52.916668 11.471057"
   version="1.1"
   id="svg1348"
   inkscape:version="0.92.3 (2405546, 2018-03-11)"
   sodipodi:docname="ultrapop-logo.svg">
  <defs
     id="defs1342" />
  <sodipodi:namedview
     id="base"
     pagecolor="#ffffff"
     bordercolor="#666666"
     borderopacity="1.0"
     inkscape:pageopacity="0.0"
     inkscape:pageshadow="2"
     inkscape:zoom="2.8"
     inkscape:cx="-33.315263"
     inkscape:cy="9.7193583"
     inkscape:document-units="mm"
     inkscape:current-layer="g1928"
     showgrid="false"
     fit-margin-top="0"
     fit-margin-left="0"
     fit-margin-right="0"
     fit-margin-bottom="0"
     inkscape:window-width="1920"
     inkscape:window-height="1016"
     inkscape:window-x="0"
     inkscape:window-y="32"
     inkscape:window-maximized="1" />
  <metadata
     id="metadata1345">
    <rdf:RDF>
      <cc:Work
         rdf:about="">
        <dc:format>image/svg+xml</dc:format>
        <dc:type
           rdf:resource="http://purl.org/dc/dcmitype/StillImage" />
        <dc:title></dc:title>
      </cc:Work>
    </rdf:RDF>
  </metadata>
  <g
     inkscape:label="Layer 1"
     inkscape:groupmode="layer"
     id="layer1"
     transform="translate(-64.688669,-93.694348)">
    <g
       id="g1928"
       transform="matrix(0.62669048,0,0,0.62669048,24.148896,39.259247)"
       style="stroke-width:1.59568405;fill:#ff0000">
      <path
         inkscape:connector-curvature="0"
         id="path4913-4-1-25-8"
         style="font-style:normal;font-variant:normal;font-weight:normal;font-stretch:normal;font-size:medium;line-height:1.25;font-family:'Pragati Narrow';-inkscape-font-specification:'Pragati Narrow';letter-spacing:0px;word-spacing:0px;fill:#ff5555;fill-opacity:1;stroke:none;stroke-width:0.42219138"
         d="m 64.688669,95.169167 v 1.688264 h 13.879676 v -1.688264 z" />
      <path
         inkscape:connector-curvature="0"
         id="path4913-4-10-8"
         style="font-style:normal;font-variant:normal;font-weight:normal;font-stretch:normal;font-size:medium;line-height:1.25;font-family:'Pragati Narrow';-inkscape-font-specification:'Pragati Narrow';letter-spacing:0px;word-spacing:0px;fill:#ff5555;fill-opacity:1;stroke:none;stroke-width:0.42219138"
         d="m 135.24727,95.169167 v 1.688264 h 13.87968 v -1.688264 z" />
      <g
         aria-label="ultrapop"
         style="font-style:normal;font-variant:normal;font-weight:normal;font-stretch:normal;font-size:22.21381378px;line-height:1.25;font-family:Futrista;-inkscape-font-specification:Futrista;letter-spacing:0px;word-spacing:0px;fill:#000000;fill-opacity:1;stroke:none;stroke-width:0.42219138"
         id="text4749-6-0-4-1-3-3-6-0-7">
        <path
           d="m 83.125229,101.63341 h 1.266187 V 90.881922 H 82.72538 v 6.575289 c 0,1.843746 -0.955194,2.932219 -1.999243,2.932219 -0.910767,0 -1.51054,-0.399845 -1.51054,-1.865956 v -7.641552 h -1.688249 v 7.752621 c 0,2.376877 1.044049,3.243217 2.665657,3.243217 1.066263,0 1.999243,-0.42206 2.576803,-1.48833 h 0.133282 z"
           style="font-style:normal;font-variant:normal;font-weight:normal;font-stretch:normal;font-family:'Pragati Narrow';-inkscape-font-specification:'Pragati Narrow';fill:#000000;fill-opacity:1;stroke-width:0.42219138"
           id="path817" />
        <path
           d="m 86.655489,101.63341 h 1.68825 V 86.861221 h -1.68825 z"
           style="font-style:normal;font-variant:normal;font-weight:normal;font-stretch:normal;font-family:'Pragati Narrow';-inkscape-font-specification:'Pragati Narrow';fill:#000000;fill-opacity:1;stroke-width:0.42219138"
           id="path819" />
        <path
           d="M 93.674359,90.881922 H 92.252675 V 87.905271 H 90.94206 l -0.377634,2.976651 h -0.932981 v 1.510539 h 0.932981 v 6.975138 c 0,1.221761 0.46649,2.465731 1.910388,2.465731 0.422062,0 0.93298,-0.11107 1.199545,-0.28878 v -1.15512 h -0.46649 c -0.621986,0 -0.955194,-0.35542 -0.955194,-0.977404 v -7.019565 h 1.421684 z"
           style="font-style:normal;font-variant:normal;font-weight:normal;font-stretch:normal;font-family:'Pragati Narrow';-inkscape-font-specification:'Pragati Narrow';fill:#000000;fill-opacity:1;stroke-width:0.42219138"
           id="path821" />
        <path
           d="m 98.715507,90.63757 c -1.04405,0 -1.577181,0.844125 -1.821533,1.666036 h -0.111069 l -0.244352,-1.421684 h -1.266187 v 10.751488 h 1.688249 v -6.553077 c 0,-1.910388 0.932981,-2.532375 1.97703,-2.532375 h 0.555345 v -1.754892 c 0,0 -0.333207,-0.155496 -0.777483,-0.155496 z"
           style="font-style:normal;font-variant:normal;font-weight:normal;font-stretch:normal;font-family:'Pragati Narrow';-inkscape-font-specification:'Pragati Narrow';fill:#000000;fill-opacity:1;stroke-width:0.42219138"
           id="path823" />
        <path
           d="m 104.20128,90.63757 c -2.02146,0 -3.44314,1.044049 -3.44314,2.976651 0,0.17771 0,0.355421 0.0222,0.46649 h 1.64382 v -0.266566 c 0,-0.799697 0.37764,-1.666036 1.66604,-1.666036 1.35504,0 1.68825,0.710842 1.68825,1.732678 v 1.377256 c -3.13215,0 -5.44239,0.644201 -5.44239,3.598638 0,2.599019 1.7549,3.021079 2.82116,3.021079 1.1329,0 2.06588,-0.51092 2.62123,-1.39947 h 0.11107 c 0.17771,0.77748 0.79969,1.31061 1.68825,1.31061 0.53313,0 0.91076,-0.13328 1.11069,-0.24435 v -1.15512 h -0.68863 c -0.26657,0 -0.53313,-0.22213 -0.53313,-0.710838 v -6.042157 c 0,-1.888175 -1.08848,-2.998865 -3.26543,-2.998865 z m 1.57718,6.131012 v 0.955194 c 0,1.777105 -1.15512,2.665654 -2.22138,2.665654 -0.9552,0 -1.46611,-0.422058 -1.46611,-1.643818 0,-1.666036 1.51053,-1.97703 3.68749,-1.97703 z"
           style="font-style:normal;font-variant:normal;font-weight:normal;font-stretch:normal;font-family:'Pragati Narrow';-inkscape-font-specification:'Pragati Narrow';fill:#000000;fill-opacity:1;stroke-width:0.42219138"
           id="path825" />
        <path
           d="m 114.15133,90.63757 c -0.99962,0 -1.84374,0.533131 -2.35466,1.510539 h -0.0889 l -0.24435,-1.266187 h -1.26619 V 105.1654 h 1.68825 v -4.48719 h 0.0889 c 0.37763,0.75527 1.24397,1.19955 2.28802,1.19955 1.77711,0 3.221,-1.71046 3.221,-5.597882 0,-3.931845 -1.31061,-5.642308 -3.33207,-5.642308 z m -0.35542,1.510539 c 1.2884,0 1.9326,1.044049 1.9326,3.731921 v 0.755269 c 0,2.687872 -0.6442,3.754131 -1.9326,3.754131 -1.2884,0 -1.91039,-1.266183 -1.91039,-3.754131 V 95.88003 c 0,-2.465734 0.62199,-3.731921 1.91039,-3.731921 z"
           style="font-style:normal;font-variant:normal;font-weight:normal;font-stretch:normal;font-family:'Pragati Narrow';-inkscape-font-specification:'Pragati Narrow';fill:#000000;fill-opacity:1;stroke-width:0.42219138"
           id="path827" />
        <path
           d="m 122.96848,90.63757 c -2.51016,0 -3.86521,1.754891 -3.86521,5.642308 0,3.842992 1.35505,5.597882 3.86521,5.597882 2.48795,0 3.84299,-1.75489 3.84299,-5.597882 0,-3.887417 -1.35504,-5.642308 -3.84299,-5.642308 z m 0,1.510539 c 1.37725,0 2.0881,1.266187 2.0881,3.731921 v 0.755269 c 0,2.487948 -0.71085,3.754131 -2.0881,3.754131 -1.39947,0 -2.11031,-1.266183 -2.11031,-3.754131 V 95.88003 c 0,-2.465734 0.71084,-3.731921 2.11031,-3.731921 z"
           style="font-style:normal;font-variant:normal;font-weight:normal;font-stretch:normal;font-family:'Pragati Narrow';-inkscape-font-specification:'Pragati Narrow';fill:#000000;fill-opacity:1;stroke-width:0.42219138"
           id="path829" />
        <path
           d="m 132.80746,90.63757 c -0.99962,0 -1.84374,0.533131 -2.35466,1.510539 h -0.0889 l -0.24435,-1.266187 H 128.8534 V 105.1654 h 1.68825 v -4.48719 h 0.0889 c 0.37763,0.75527 1.24397,1.19955 2.28802,1.19955 1.77711,0 3.22101,-1.71046 3.22101,-5.597882 0,-3.931845 -1.31062,-5.642308 -3.33208,-5.642308 z m -0.35542,1.510539 c 1.2884,0 1.9326,1.044049 1.9326,3.731921 v 0.755269 c 0,2.687872 -0.6442,3.754131 -1.9326,3.754131 -1.2884,0 -1.91039,-1.266183 -1.91039,-3.754131 V 95.88003 c 0,-2.465734 0.62199,-3.731921 1.91039,-3.731921 z"
           style="font-style:normal;font-variant:normal;font-weight:normal;font-stretch:normal;font-family:'Pragati Narrow';-inkscape-font-specification:'Pragati Narrow';fill:#000000;fill-opacity:1;stroke-width:0.42219138"
           id="path831" />
      </g>
    </g>
  </g>
</svg>
