<?xml version="1.0" encoding="UTF-8"?>
<svg width="720px" height="380px" viewBox="0 0 720 380" version="1.1" xmlns="http://www.w3.org/2000/svg" xmlns:xlink="http://www.w3.org/1999/xlink">
    <!-- Generator: Sketch 51.3 (57544) - http://www.bohemiancoding.com/sketch -->
    <title>story-04</title>
    <desc>Created with Sketch.</desc>
    <defs></defs>
    <g id="Page-1" stroke="none" stroke-width="1" fill="none" fill-rule="evenodd">
        <g id="Artboard-12-Copy-3" transform="translate(-45.000000, -75.000000)">
            <g id="Group-3" transform="translate(174.000000, 82.000000)">
                <g id="Group" transform="translate(243.500000, 211.000000) scale(-1, 1) translate(-243.500000, -211.000000) translate(131.000000, 51.000000)">
                    <g id="Head/Front/Afro" transform="translate(61.500000, 0.000000)">
                        <path d="M45.75,58.2801441 C54.3217034,58.2801441 57.439123,48.0180629 62.308964,42.3865112 C65.7932354,38.3572515 71.7398096,39.5587081 73.5,33.9178322 C77.9261569,19.7333428 66.0795815,9.75 50.625,9.75 C35.1704185,9.75 24.75,18.5056893 22.5,31.6678322 C20.25,44.829975 30.2954185,58.2801441 45.75,58.2801441 Z" id="Hair-Back" fill="#191847"></path>
                        <g id="Head" stroke-width="1" transform="translate(40.500000, 23.250000)" fill="#B28B67">
                            <path d="M6.19670541,25.8675951 C2.74077326,21.8110319 0.401726096,16.8396578 0.792582251,11.2690904 C1.91874767,-4.78126543 24.261398,-1.25039164 28.607506,6.85044969 C32.9536141,14.951291 32.4371835,35.4997469 26.820226,36.9475932 C24.5801912,37.5249923 19.8082509,36.1105957 14.951529,33.1832295 L18,54.75 L0,54.75 L6.19670541,25.8675951 Z"></path>
                        </g>
                        <path d="M54.2848268,38.7925256 C53.6308303,38.4465226 52.881465,38.25 52.0850013,38.25 C49.5348442,38.25 47.4675334,40.2647186 47.4675334,42.75 C47.4675334,43.7643668 47.8119188,44.7003444 48.3929585,45.4529423 C47.2988926,47.2562875 46.5521874,49.1510111 46.3074291,51.0988294 C42.5152763,51.0988294 28.6751852,36.75 42.4625926,23.25 C56.25,9.75 76.1745105,29.0219698 70.1873704,30.1458951 C66.7450715,30.7920945 59.8123859,34.0784312 54.2848287,38.7925242 Z" id="Hair" fill="#191847"></path>
                    </g>
                    <g id="Bottom/Standing/Shorts" transform="translate(0.000000, 140.469484)">
                        <polygon id="Leg" fill="#997659" points="96 9.9475983e-14 124.223128 92.7835926 137.895116 171.690062 148.614898 171.690062 134.168231 9.9475983e-14"></polygon>
                        <path d="M85.9032955,0 C87.8202787,50.9431793 85.5642485,77.2205937 85.1352047,81.849003 C84.7061609,86.4774123 78.8311472,116.488266 64.9227655,173.243818 L76.3454943,169.298823 C98.3263947,117.245583 105.816702,90.1925952 108.337745,83.3573829 C110.858788,76.5221706 117.554552,48.7363763 128.425039,0 L85.9032955,0 Z" id="Leg" fill="#B28B67"></path>
                        <g id="Accessories/Shoe/Flat-Sneaker" transform="translate(63.000000, 150.083799)" fill="#E4E4E4">
                            <path d="M2.00859885,19.0514432 C1.16953295,21.2913082 0.75,22.9672448 0.75,24.0792531 C0.75,25.4317178 0.975310653,27.4053001 1.42593196,30 C2.99488588,30 17.0953389,30 43.7272911,30 C44.8265535,26.3658804 44.1919955,24.4039362 41.8236171,24.1141674 C39.4552388,23.8243985 37.4877867,23.5627604 35.9212608,23.3292531 L16.2599945,14.5641626 C15.8816726,14.3955048 15.438258,14.5654712 15.2696002,14.943793 C15.266715,14.9502651 15.2639216,14.9567777 15.2612209,14.9633289 L13.9974098,18.0290213 C11.8049109,19.0519891 10.0232779,19.563473 8.65251085,19.563473 C7.53879515,19.563473 6.00074435,19.1136791 4.03835844,18.2140912 L4.03836254,18.2140822 C3.28528705,17.8688608 2.3949415,18.1994919 2.04972011,18.9525674 C2.03484056,18.9850261 2.02112474,19.0180057 2.00859885,19.0514432 Z" id="shoe"></path>
                        </g>
                        <g id="Accessories/Shoe/Flat-Sneaker" transform="translate(133.500000, 150.083799)" fill="#E4E4E4">
                            <path d="M2.00859885,19.0514432 C1.16953295,21.2913082 0.75,22.9672448 0.75,24.0792531 C0.75,25.4317178 0.975310653,27.4053001 1.42593196,30 C2.99488588,30 17.0953389,30 43.7272911,30 C44.8265535,26.3658804 44.1919955,24.4039362 41.8236171,24.1141674 C39.4552388,23.8243985 37.4877867,23.5627604 35.9212608,23.3292531 L16.2599945,14.5641626 C15.8816726,14.3955048 15.438258,14.5654712 15.2696002,14.943793 C15.266715,14.9502651 15.2639216,14.9567777 15.2612209,14.9633289 L13.9974098,18.0290213 C11.8049109,19.0519891 10.0232779,19.563473 8.65251085,19.563473 C7.53879515,19.563473 6.00074435,19.1136791 4.03835844,18.2140912 L4.03836254,18.2140822 C3.28528705,17.8688608 2.3949415,18.1994919 2.04972011,18.9525674 C2.03484056,18.9850261 2.02112474,19.0180057 2.00859885,19.0514432 Z" id="shoe"></path>
                        </g>
                        <polygon id="Bottom" fill="#69A1AC" points="92.25 0 104.25 47.2722638 140.902738 47.2722638 135.437666 0"></polygon>
                        <path d="M85.5,-3.55271368e-15 C81.5515794,11.9015292 80.8015794,27.6589504 83.25,47.2722638 L120.652738,47.2722638 L130.937666,-3.55271368e-15 L85.5,-3.55271368e-15 Z" id="Bottom" fill="#89C5CC"></path>
                    </g>
                    <path d="M159.288862,71.0130653 L187.727078,62.4925419 C193.030325,58.3642224 198.033168,55.3466429 202.735608,53.4398034 C204.103468,53.1832428 206.368462,53.3345684 203.540647,56.5442169 C200.712832,59.7538653 197.882884,63.2573784 198.691989,64.6047115 C199.501095,65.9520446 202.444594,64.9390677 203.29834,67.073 C203.867503,68.4956216 198.990317,69.5105229 188.66678,70.117704 L166.560344,83.1216291 L159.288862,71.0130653 Z M156.793513,121.242589 L180.712852,138.826579 C187.201448,140.577455 192.62218,142.756879 196.975049,145.364849 C198.003146,146.302869 199.245399,148.202843 194.980238,147.876065 C190.715078,147.549286 186.213942,147.397656 185.624846,148.854681 C185.03575,150.311707 187.616191,152.052865 186.425754,154.018929 C185.632129,155.329639 181.886429,152.045327 175.188653,144.165995 L151.499271,134.336967 L156.793513,121.242589 Z" id="Skin-Copy" fill="#B28B67"></path>
                    <path d="M110.802978,81.1679315 C129.674373,101.291897 152.691133,114.423671 184.082351,126.071472 L177.111319,140.032681 C144.722798,136.974127 127.407313,134.531379 113.832928,114.376374 C110.426033,109.317876 104.334302,91.9125355 100.684907,82.8739155 L110.802978,81.1679315 Z" id="Coat-Back-Copy" fill="#2026A2" transform="translate(142.383629, 110.600306) rotate(15.000000) translate(-142.383629, -110.600306) "></path>
                    <path d="M83.25,154.741784 L141,154.741784 C127.918658,114.783385 121.236212,87.3584237 120.952662,72.4669006 C120.938206,71.7077164 119.538284,70.3699266 118.918928,70.545122 C114.389643,71.8263078 109.54295,71.3472608 104.37885,69.1079812 C90.6881137,91.1612446 85.9536197,118.313277 83.25,154.741784 Z" id="Shirt-Copy" fill="#F2F2F2"></path>
                    <path d="M109.359618,69.1435834 C125.91342,69.2793467 152.770742,72.3069719 183.744748,62.3474178 L186.802742,77.6514406 C163.392879,92.7310637 139.688432,104.412444 118.917429,102.753618 C127.937075,141.503924 127.521226,173.225139 107.608346,173.225139 C98.0989548,173.225139 87.8348685,173.225139 76.8160866,173.225139 C71.9255651,140.30719 84.7788127,94.6656264 96.6947078,71.6443901 C97.14974,70.7652784 98.1185491,69.1079812 100.400492,69.1079812 C102.388786,69.1079812 105.371226,69.1079812 109.347814,69.1079812 C109.351749,69.1198486 109.355684,69.131716 109.359618,69.1435834 Z" id="Coat-Front-Copy" fill="#1F28CF"></path>
                </g>
                <path d="M105.864506,68.5 L80.777923,89.8839146 L85.9070426,68.5 L64,68.5 C58.7532949,68.5 54.5,64.2467051 54.5,59 L54.5,7 C54.5,1.75329488 58.7532949,-2.5 64,-2.5 L188,-2.5 C193.246705,-2.5 197.5,1.75329488 197.5,7 L197.5,59 C197.5,64.2467051 193.246705,68.5 188,68.5 L105.864506,68.5 Z" id="Combined-Shape" stroke="#979797" stroke-width="5" stroke-linecap="round" stroke-linejoin="round" transform="translate(126.000000, 41.500000) scale(-1, 1) translate(-126.000000, -41.500000) "></path>
                <text id="Hello?" font-family="Inter-ExtraBold, Inter" font-size="36" font-weight="600" fill="#979797">
                    <tspan x="73" y="46">Hello?</tspan>
                </text>
                <g id="Group-2" transform="translate(0.000000, 219.000000)">
                    <path d="M36.8174468,51.1762048 L17.9298867,67.1342945 L21.7915746,51.1762048 L5.25,51.1762048 C1.31497116,51.1762048 -1.875,47.9862337 -1.875,44.0512048 L-1.875,5.25 C-1.875,1.31497116 1.31497116,-1.875 5.25,-1.875 L79.75,-1.875 C83.6850288,-1.875 86.875,1.31497116 86.875,5.25 L86.875,44.0512048 C86.875,47.9862337 83.6850288,51.1762048 79.75,51.1762048 L36.8174468,51.1762048 Z" id="Combined-Shape-Copy" stroke="#979797" stroke-width="3.75" stroke-linecap="round" stroke-linejoin="round"></path>
                    <text id="नमस्ते" font-family="KohinoorDevanagari-Bold, Kohinoor Devanagari" font-size="27" font-weight="bold" fill="#979797">
                        <tspan x="12.057971" y="34.2168675">नमस्ते</tspan>
                    </text>
                </g>
                <g id="Group-2-Copy" transform="translate(71.000000, 149.000000)">
                    <path d="M18.4087234,25.5881024 L8.96494337,33.5671472 L10.8957873,25.5881024 L2.625,25.5881024 C0.657485579,25.5881024 -0.9375,23.9931168 -0.9375,22.0256024 L-0.9375,2.625 C-0.9375,0.657485579 0.657485579,-0.9375 2.625,-0.9375 L61.375,-0.9375 C63.3425144,-0.9375 64.9375,0.657485579 64.9375,2.625 L64.9375,22.0256024 C64.9375,23.9931168 63.3425144,25.5881024 61.375,25.5881024 L18.4087234,25.5881024 Z" id="Combined-Shape-Copy" stroke="#979797" stroke-width="1.875" stroke-linecap="round" stroke-linejoin="round"></path>
                    <text id="Привет" font-family="Inter-ExtraBold, Inter" font-size="13.5" font-weight="600" fill="#979797">
                        <tspan x="7.02898551" y="17.1084337">Привет</tspan>
                    </text>
                </g>
                <path d="M346.585015,262.588102 L337.066578,270.551381 L339.012686,262.588102 L330.625,262.588102 C328.657486,262.588102 327.0625,260.993117 327.0625,259.025602 L327.0625,239.625 C327.0625,237.657486 328.657486,236.0625 330.625,236.0625 L363.375,236.0625 C365.342514,236.0625 366.9375,237.657486 366.9375,239.625 L366.9375,259.025602 C366.9375,260.993117 365.342514,262.588102 363.375,262.588102 L346.585015,262.588102 Z" id="Combined-Shape-Copy" stroke="#979797" stroke-width="1.875" stroke-linecap="round" stroke-linejoin="round" transform="translate(347.000000, 252.500000) scale(-1, 1) translate(-347.000000, -252.500000) "></path>
                <text id="你好" font-family="PingFangSC-Semibold, PingFang SC" font-size="12" font-weight="500" fill="#747474">
                    <tspan x="335" y="254">你好</tspan>
                </text>
                <g id="Group-2-Copy-2" transform="translate(355.000000, 89.500000) scale(-1, 1) translate(-355.000000, -89.500000) translate(321.000000, 66.000000)">
                    <path d="M27.6130851,38.3821536 L13.4474151,50.3507209 L16.3436809,38.3821536 L3.9375,38.3821536 C0.986228368,38.3821536 -1.40625,35.9896752 -1.40625,33.0384036 L-1.40625,3.9375 C-1.40625,0.986228368 0.986228368,-1.40625 3.9375,-1.40625 L64.0625,-1.40625 C67.0137716,-1.40625 69.40625,0.986228368 69.40625,3.9375 L69.40625,33.0384036 C69.40625,35.9896752 67.0137716,38.3821536 64.0625,38.3821536 L27.6130851,38.3821536 Z" id="Combined-Shape-Copy" stroke="#979797" stroke-width="2.8125" stroke-linecap="round" stroke-linejoin="round"></path>
                    <text id="Hallo" transform="translate(30.434783, 17.662651) scale(-1, 1) translate(-30.434783, -17.662651) " font-family="Inter-ExtraBold, Inter" font-size="20.25" font-weight="600" fill="#979797">
                        <tspan x="1.04347826" y="25.1626506">Hallo</tspan>
                    </text>
                </g>
                <path d="M413.613085,202.382154 L399.447415,214.350721 L402.343681,202.382154 L369.9375,202.382154 C366.986228,202.382154 364.59375,199.989675 364.59375,197.038404 L364.59375,167.9375 C364.59375,164.986228 366.986228,162.59375 369.9375,162.59375 L457.8125,162.59375 C460.763772,162.59375 463.15625,164.986228 463.15625,167.9375 L463.15625,197.038404 C463.15625,199.989675 460.763772,202.382154 457.8125,202.382154 L413.613085,202.382154 Z" id="Combined-Shape-Copy" stroke="#979797" stroke-width="2.8125" stroke-linecap="round" stroke-linejoin="round" transform="translate(413.875000, 187.250000) scale(-1, 1) translate(-413.875000, -187.250000) "></path>
                <text id="Bonjour" font-family="Inter-ExtraBold, Inter" font-size="20.25" font-weight="600" fill="#979797">
                    <tspan x="375.043478" y="189.162651">Bonjour</tspan>
                </text>
            </g>
        </g>
    </g>
</svg>