<?xml version="1.0" encoding="UTF-8"?>
<svg width="720px" height="380px" viewBox="0 0 720 380" version="1.1" xmlns="http://www.w3.org/2000/svg" xmlns:xlink="http://www.w3.org/1999/xlink">
    <!-- Generator: Sketch 51.3 (57544) - http://www.bohemiancoding.com/sketch -->
    <title>story-02</title>
    <desc>Created with Sketch.</desc>
    <defs></defs>
    <g id="Page-1" stroke="none" stroke-width="1" fill="none" fill-rule="evenodd">
        <g id="Artboard-12-Copy" transform="translate(-46.000000, -42.000000)">
            <g id="Group" transform="translate(147.000000, 82.000000)">
                <g id="A-Human/Sitting" transform="translate(405.554269, 132.582160) scale(-1, 1) translate(-405.554269, -132.582160) translate(293.054269, 0.207160)">
                    <g id="Head/Front/Hijab-1" transform="translate(61.500000, 0.000000)" stroke-width="1">
                        <g id="Head" transform="translate(40.500000, 23.250000)" fill="#B28B67">
                            <path d="M6.19670541,25.8675951 C2.74077326,21.8110319 0.401726096,16.8396578 0.792582251,11.2690904 C1.91874767,-4.78126543 24.261398,-1.25039164 28.607506,6.85044969 C32.9536141,14.951291 32.4371835,35.4997469 26.820226,36.9475932 C24.5801912,37.5249923 19.8082509,36.1105957 14.951529,33.1832295 L18,54.75 L0,54.75 L6.19670541,25.8675951 Z"></path>
                        </g>
                        <g id="Hijab" transform="translate(27.000000, 21.000000)">
                            <path d="M38.0512501,3.75860387 C37.6389531,3.5125258 36.7763557,2.99347383 36.3393558,2.80535276 C36.2359424,2.76008487 35.5118707,2.24351571 35.4923989,2.25006168 C34.9441873,2.43501047 33.3567217,3.11785425 33.220468,3.70789779 C33.1993494,3.75261179 33.1786183,3.79455634 33.15842,3.83121377 C32.9334779,4.24013539 32.7270872,4.65922844 32.5301902,5.08340721 C32.0981309,6.01454607 31.7251648,6.98773018 31.368958,7.95326055 C30.6751443,9.83366557 30.0723925,11.7578782 29.5182231,13.6864716 C28.9540271,15.6497587 28.4751775,17.6359566 27.9391236,19.6073506 C27.167762,22.4440713 26.1805161,25.2112033 25.4144826,28.0467658 C24.9253158,29.8573304 24.6532443,31.6891441 24.7816997,33.5526303 C24.782959,33.5750377 24.7836856,33.5971429 24.7857199,33.6199028 C24.7864949,33.6292182 24.7876574,33.6384329 24.7884809,33.6477483 C24.810326,33.93421 24.8414711,34.2213766 24.8829817,34.5093992 C24.9193096,34.7556787 24.9557343,35.0028645 24.9945809,35.25 C25.694304,33.8547016 26.2285173,32.317255 26.7954256,30.8580075 C26.8508862,30.7151544 26.9037795,30.5712438 26.955462,30.42688 C27.1382638,30.1309518 27.3246499,29.8371386 27.5131189,29.5444331 C28.7016696,27.6986713 29.8949188,25.8597073 31.0346448,23.9805612 C33.0846018,20.6007769 35.1154261,17.1495408 37.5458085,14.045946 C38.2634533,13.1294601 38.9978089,12.2270227 39.7064443,11.3030341 C40.1096836,10.7772418 40.5024604,10.2426375 40.8824983,9.69851649 C41.1541823,9.30943419 42.3353483,7.95326055 41.9076221,7.13843852 C41.6887792,6.72154106 39.1207908,4.39703722 38.0512501,3.75860387 Z" id="Front" fill="#2C2C2C"></path>
                            <path d="M36.4695128,2.87337449 C36.8704633,3.00811441 36.6753964,2.17377053 36.2870433,1.88016322 C34.4878863,0.519943262 27.6094898,0.0263474708 21.6237623,1.26891283 C17.6138858,2.10131518 12.9502982,4.17312213 9.74749081,6.83659362 C6.86024598,9.23771942 4.87461334,13.0868498 3.85231685,16.8057563 C2.77894008,20.7106806 2.61637154,24.7817155 3.21438094,28.786026 C3.34575843,29.6655968 3.62805716,30.5038026 3.78534493,31.3647166 C3.96247258,32.3342202 4.05333131,33.2676607 4.36909133,34.2109047 C4.56245609,34.7883654 4.89104787,35.3544718 5.05603469,35.9352337 C5.24436546,36.5979254 5.12957055,37.210999 4.99222136,37.8850449 C4.76840585,38.9836456 4.49089435,40.0799955 4.09651512,41.1292282 C3.50428002,42.7048028 2.78560272,44.1804411 2.33501052,45.8154374 C1.73547118,47.9909309 -0.77243542,55.070352 1.06034156,57 L35.9492934,57 C35.070762,54.6035759 32.4336816,51.7832142 31.899831,49.2178785 C31.5854035,47.7066773 31.4358148,44.4064235 31.4028964,44.2864798 C30.6166698,38.8667529 29.0814946,36.2785976 28.120006,35.3393238 C27.1585175,34.4000499 25.8778858,34.1112184 25.8119009,33.2964712 C25.5391766,29.9267421 26.8791579,26.6980144 27.8617253,23.5531173 C29.0327715,19.8049002 29.8909695,15.9636991 31.0982408,12.2281866 C31.6328317,10.5740333 34.3876759,2.17377053 36.4695128,2.87337449 Z" id="Turban" fill="#8991DC"></path>
                            <path d="M24.2370267,6.75 C22.921382,10.9244633 22.6384159,13.1527766 22.921382,18.8565814 L22.2759899,18.8565814 C21.0703302,13.4739041 22.143377,8.40668031 23.4258436,6.75 L24.2370267,6.75 Z M6.58656776,17.5232312 C9.0382969,23.4722818 10.1561478,26.9852838 17.0026078,31.7993628 L16.4739336,32.1695445 C9.6773436,28.3176422 7.69810643,23.7229572 6.07087716,17.7710645 L6.58656776,17.5232312 Z M16.6600917,11.4692291 C17.7736608,19.9133009 18.0987659,24.7365613 23.8998344,33.9732282 L23.2826429,34.1619225 C17.312344,26.1196085 16.3659601,19.5555729 16.0838931,11.5156045 L16.6600917,11.4692291 Z M10.2520901,36.5522382 L10.7801422,35.9103248 C17.9856446,38.1672487 17.1830215,42.8267754 26.2584057,47.5455855 L25.5,48.0051109 C17.5533204,44.7255485 15.6956758,37.6914995 10.2520901,36.5522382 Z" id="Shade" fill-opacity="0.2" fill="#000000"></path>
                        </g>
                    </g>
                    <g id="Bottom/Sitting/Skinny-Jeans-1" transform="translate(0.000000, 140.250000)">
                        <g id="Objects/Seat/Cube" transform="translate(7.500000, 31.500000)" stroke-width="1">
                            <g id="Seat" transform="translate(41.250000, 0.000000)">
                                <polygon id="Seat-Stuff" fill="#C5CFD6" points="20.7169811 0 78.6578947 0 86.25 93 0 93"></polygon>
                                <polygon id="Seat-Stuff" fill-opacity="0.1" fill="#000000" points="20.7169811 0 38.5371008 0 49.2028302 93 0 93"></polygon>
                            </g>
                        </g>
                        <path d="M193.464971,15.5670946 C199.642569,11.8576102 210.007116,16.6235363 210,21.9288115 C209.978708,37.8021829 195.492511,112.613325 194.736168,117.342533 C193.979824,122.071741 185.877488,123.320903 185.405662,117.358031 C184.654908,107.870096 183.2601,75.024841 184.655662,59.8219891 C185.231721,53.5465713 185.852106,47.5700728 186.462861,42.2381959 C178.861427,55.9654523 167.105422,75.6194982 151.194846,101.200333 L142.55743,97.2541311 C149.340124,74.907074 154.901832,59.1306463 159.242553,49.9248481 C166.67492,34.1622866 173.64398,20.663754 176.577032,15.9090054 C181.190726,8.42978277 189.221596,11.0393944 193.464971,15.5670946 Z" id="Skin" fill="#B28B67"></path>
                        <path d="M156.614417,92.5050839 L160.452691,16.3724512 C163.219021,3.20804968 186.632737,9.31765121 186.623109,16.3724512 C186.60125,32.3890311 176.980142,87.7175713 176.973629,92.4894456 L156.614417,92.5050839 Z" id="LegLower" fill="#1F28CF" transform="translate(171.618764, 50.564723) rotate(20.000000) translate(-171.618764, -50.564723) "></path>
                        <g id="Accessories/Shoe/Flat-Sneaker" transform="translate(161.625000, 99.750000) rotate(30.000000) translate(-161.625000, -99.750000) translate(138.750000, 84.750000)" fill="#E4E4E4">
                            <path d="M2.00859885,19.0514432 C1.16953295,21.2913082 0.75,22.9672448 0.75,24.0792531 C0.75,25.4317178 0.975310653,27.4053001 1.42593196,30 C2.99488588,30 17.0953389,30 43.7272911,30 C44.8265535,26.3658804 44.1919955,24.4039362 41.8236171,24.1141674 C39.4552388,23.8243985 37.4877867,23.5627604 35.9212608,23.3292531 L16.2599945,14.5641626 C15.8816726,14.3955048 15.438258,14.5654712 15.2696002,14.943793 C15.266715,14.9502651 15.2639216,14.9567777 15.2612209,14.9633289 L13.9974098,18.0290213 C11.8049109,19.0519891 10.0232779,19.563473 8.65251085,19.563473 C7.53879515,19.563473 6.00074435,19.1136791 4.03835844,18.2140912 L4.03836254,18.2140822 C3.28528705,17.8688608 2.3949415,18.1994919 2.04972011,18.9525674 C2.03484056,18.9850261 2.02112474,19.0180057 2.00859885,19.0514432 Z" id="shoe"></path>
                        </g>
                        <g id="Accessories/Shoe/Flat-Sneaker" transform="translate(181.500000, 94.500000)" fill="#E4E4E4">
                            <path d="M2.00859885,19.0514432 C1.16953295,21.2913082 0.75,22.9672448 0.75,24.0792531 C0.75,25.4317178 0.975310653,27.4053001 1.42593196,30 C2.99488588,30 17.0953389,30 43.7272911,30 C44.8265535,26.3658804 44.1919955,24.4039362 41.8236171,24.1141674 C39.4552388,23.8243985 37.4877867,23.5627604 35.9212608,23.3292531 L16.2599945,14.5641626 C15.8816726,14.3955048 15.438258,14.5654712 15.2696002,14.943793 C15.266715,14.9502651 15.2639216,14.9567777 15.2612209,14.9633289 L13.9974098,18.0290213 C11.8049109,19.0519891 10.0232779,19.563473 8.65251085,19.563473 C7.53879515,19.563473 6.00074435,19.1136791 4.03835844,18.2140912 L4.03836254,18.2140822 C3.28528705,17.8688608 2.3949415,18.1994919 2.04972011,18.9525674 C2.03484056,18.9850261 2.02112474,19.0180057 2.00859885,19.0514432 Z" id="shoe"></path>
                        </g>
                        <path d="M212.07778,27.3247709 C212.07778,47.25 202.6152,93.72772 202.609212,98.1150837 L182.25,98.130722 C185.229958,56.6591108 186.286629,35.6999196 185.420012,35.2531484 C184.120087,34.5829917 132.131878,40.4437729 116.539768,40.4437729 C94.0558689,40.4437729 84.7547299,26.2652978 84,-4.40536496e-13 L128.539768,-4.40536496e-13 C137.608465,0.970400201 184.911619,10.5114426 202.479072,13.7913096 C210,15.1954769 212.07778,21.8358832 212.07778,27.3247709 Z" id="Leg-and-Butt" fill="#2B44FF"></path>
                    </g>
                    <g id="Body/Turtle-Neck" transform="translate(16.500000, 61.500000)">
                        <path d="M149.619843,69.3452508 L170.865771,90.0715181 C177.047553,92.7083763 182.112642,95.6200001 186.06104,98.8063896 C186.948976,99.8774436 187.915638,101.929638 183.737946,101.011311 C179.560253,100.092983 175.124647,99.3149262 174.339458,100.673542 C173.554268,102.032159 175.867893,104.114041 174.416766,105.892121 C173.449347,107.077507 170.195843,103.307026 164.656252,94.5806778 L142.563297,81.5552173 L149.619843,69.3452508 Z M45.7273439,50.5872626 L62.1503878,50.6488973 C49.6420745,91.1742522 43.0022605,112.392686 42.230946,114.304198 C40.4954884,118.6051 44.1679501,125.155299 45.7384405,128.675327 C40.6234056,130.964153 41.1684181,122.487697 34.7159392,125.489619 C28.8264157,128.229635 24.3462698,133.19436 17.5417764,128.995779 C16.7052039,128.479588 15.7884568,126.536036 18.0034338,125.017253 C23.5217493,121.23341 31.4739762,114.611004 32.5484472,112.431188 C34.0136805,109.458619 38.4066461,88.8439775 45.7273439,50.5872626 Z" id="Skin" fill="#B28B67"></path>
                        <path d="M92.0762043,7.2854886 L98.439918,5.61211059 C111.764953,40.698167 166.202173,60.6462319 170.588922,73.8142973 C172.197659,78.6433749 168.866182,81.4471258 170.83117,82.7889732 L162.971392,89.6710453 C161.404175,88.1362964 158.635036,91.4367926 152.111946,89.8682589 C145.588856,88.2997252 95.8031497,49.8846685 92.0762043,7.2854886 Z" id="Clothes-Back" fill="#DB2721" transform="translate(131.559950, 47.957431) rotate(5.000000) translate(-131.559950, -47.957431) "></path>
                        <path d="M106.680531,8.8002448 C105.932817,56.6123057 133.571874,68.8084202 127.415447,87.988684 C122.331571,103.82743 73.6704983,120.854014 65.25,105.328305 C61.8414898,99.0436966 60.2950347,91.4429066 60.1195702,83.1792057 C57.9674672,89.5279011 56.2653928,94.9933671 55.0133451,99.5756091 C52.8533879,107.480617 44.4796949,108.737154 44.4796949,111.782446 L33.4474725,108.737154 C34.1957621,104.599997 28.9949059,102.585448 30.3893911,93.3426785 C36.6375035,51.9296437 53.4250561,21.9106362 80.7520488,3.28565601 L81.0347603,-0.757307849 C81.1503366,-2.41012609 82.5839037,-3.65630689 84.2367219,-3.54073058 L104.437394,-2.12816199 C106.090212,-2.01258568 107.336393,-0.579018649 107.220817,1.07379959 L106.680531,8.8002448 Z" id="Clothes-Front" fill="#FF4133"></path>
                    </g>
                </g>
                <g id="A-Human/Standing">
                    <g id="Head/Front/Short-2" transform="translate(61.470333, 0.000000)">
                        <g id="Head" stroke-width="1" transform="translate(40.500000, 23.250000)" fill="#B28B67">
                            <path d="M6.19670541,25.8675951 C2.74077326,21.8110319 0.401726096,16.8396578 0.792582251,11.2690904 C1.91874767,-4.78126543 24.261398,-1.25039164 28.607506,6.85044969 C32.9536141,14.951291 32.4371835,35.4997469 26.820226,36.9475932 C24.5801912,37.5249923 19.8082509,36.1105957 14.951529,33.1832295 L18,54.75 L0,54.75 L6.19670541,25.8675951 Z"></path>
                        </g>
                        <path d="M45.3136038,52.7306401 C43.0544266,42.6798441 36.6183995,35.8285532 37.6013352,31.3362773 C38.2566257,28.3414266 40.0031713,26.4790341 42.8409719,25.7490998 C44.3086556,19.8116256 49.0422364,17.2861864 57.0417144,18.1727823 C69.0409315,19.502676 76.3645857,24.485819 73.2018614,35.4509084 C70.294574,35.4509084 66.7848569,34.39949 61.9316475,36.2009084 C60.3917437,36.7724912 59.2903594,38.5450196 58.6274945,41.5184936 L56.4343484,41.5184936 C54.3058077,37.9897929 52.2070529,36.6930917 50.138084,37.62839 C48.0691152,38.5636882 47.5988049,40.8355315 48.7271532,44.4439198 L47.646807,52.7306401 L45.3136038,52.7306401 Z" id="Hair" fill="#191847"></path>
                    </g>
                    <g id="Bottom/Sitting/Baggy-Pants" transform="translate(0.000000, 140.469484)">
                        <g id="Objects/Seat/Cube-2" transform="translate(7.500000, 31.675978)" fill="#C5CFD6">
                            <path d="M44.25,0 L130.5,-3.55271368e-15 C137.127417,-4.77015043e-15 142.5,5.372583 142.5,12 L142.5,82 C142.5,88.627417 137.127417,94 130.5,94 L44.25,94 C37.622583,94 32.25,88.627417 32.25,82 L32.25,12 C32.25,5.372583 37.622583,1.21743675e-15 44.25,0 Z M56.25,21.2258065 C54.5931458,21.2258065 53.25,22.5689522 53.25,24.2258065 L53.25,69.7741935 C53.25,71.4310478 54.5931458,72.7741935 56.25,72.7741935 L118.5,72.7741935 C120.156854,72.7741935 121.5,71.4310478 121.5,69.7741935 L121.5,24.2258065 C121.5,22.5689522 120.156854,21.2258065 118.5,21.2258065 L56.25,21.2258065 Z" id="Seat"></path>
                        </g>
                        <path d="M224.369223,121.424581 C209.582321,103.266836 199.57715,89.8054954 194.35371,81.0405599 C185.409912,66.0328624 178.089841,52.6787834 175.779809,47.5775853 C170.271241,35.4131243 188.461422,29.7170584 192.578273,35.3909665 C198.80929,43.9786517 212.116533,71.0016793 232.5,116.460049 L224.369223,121.424581 Z" id="LegLower" fill="#B28B67"></path>
                        <path d="M194.068175,116.145251 L166.548898,46.4858373 C160.663072,33.7873906 189.086818,25.4403929 193.412456,31.3499955 C203.232991,44.766623 226.574134,97.6932724 229.5,101.690534 L194.068175,116.145251 Z" id="LegLower" fill="#2F3676"></path>
                        <g id="Lower-Leg" stroke-width="1" transform="translate(165.129721, 74.287169) rotate(39.000000) translate(-165.129721, -74.287169) translate(144.504721, 19.985493)" fill="#B28B67">
                            <path d="M3.60784635,104.044299 C2.85286903,94.5410415 1.45021474,61.6427441 2.85362737,46.415341 C3.25691187,42.039596 3.68179917,37.8089526 4.10998339,33.8402338 C5.38269841,22.0437971 27.1342708,22.41669 25.4069233,33.623896 C21.1051452,61.5342683 13.5335253,100.649039 12.9908389,104.028775 C12.2302407,108.76562 4.08232606,110.0168 3.60784635,104.044299 Z" id="LegLower"></path>
                        </g>
                        <g id="Accessories/Shoe/Flat-Sneaker" transform="translate(142.125000, 105.586592) rotate(30.000000) translate(-142.125000, -105.586592) translate(119.250000, 90.502793)" fill="#E4E4E4">
                            <path d="M2.00859885,19.0514432 C1.16953295,21.2913082 0.75,22.9672448 0.75,24.0792531 C0.75,25.4317178 0.975310653,27.4053001 1.42593196,30 C2.99488588,30 17.0953389,30 43.7272911,30 C44.8265535,26.3658804 44.1919955,24.4039362 41.8236171,24.1141674 C39.4552388,23.8243985 37.4877867,23.5627604 35.9212608,23.3292531 L16.2599945,14.5641626 C15.8816726,14.3955048 15.438258,14.5654712 15.2696002,14.943793 C15.266715,14.9502651 15.2639216,14.9567777 15.2612209,14.9633289 L13.9974098,18.0290213 C11.8049109,19.0519891 10.0232779,19.563473 8.65251085,19.563473 C7.53879515,19.563473 6.00074435,19.1136791 4.03835844,18.2140912 L4.03836254,18.2140822 C3.28528705,17.8688608 2.3949415,18.1994919 2.04972011,18.9525674 C2.03484056,18.9850261 2.02112474,19.0180057 2.00859885,19.0514432 Z" id="shoe"></path>
                        </g>
                        <g id="Accessories/Shoe/Flat-Sneaker" transform="translate(216.000000, 99.553073)" fill="#E4E4E4">
                            <path d="M2.00859885,19.0514432 C1.16953295,21.2913082 0.75,22.9672448 0.75,24.0792531 C0.75,25.4317178 0.975310653,27.4053001 1.42593196,30 C2.99488588,30 17.0953389,30 43.7272911,30 C44.8265535,26.3658804 44.1919955,24.4039362 41.8236171,24.1141674 C39.4552388,23.8243985 37.4877867,23.5627604 35.9212608,23.3292531 L16.2599945,14.5641626 C15.8816726,14.3955048 15.438258,14.5654712 15.2696002,14.943793 C15.266715,14.9502651 15.2639216,14.9567777 15.2612209,14.9633289 L13.9974098,18.0290213 C11.8049109,19.0519891 10.0232779,19.563473 8.65251085,19.563473 C7.53879515,19.563473 6.00074435,19.1136791 4.03835844,18.2140912 L4.03836254,18.2140822 C3.28528705,17.8688608 2.3949415,18.1994919 2.04972011,18.9525674 C2.03484056,18.9850261 2.02112474,19.0180057 2.00859885,19.0514432 Z" id="shoe"></path>
                        </g>
                        <path d="M156.646568,49.9651232 C133.773954,46.2180684 118.453567,43.6558468 110.685407,42.2784584 C88.5430883,38.3523586 82.0861998,26.3705007 85.903857,0.227937815 L126.700703,0.227937815 C132.099509,1.79572144 154.657819,11.4919546 194.375631,29.3166371 C201.521649,32.883838 200.190825,43.4017445 198.88466,46.8669294 C198.83139,47.0082529 186.784573,67.7662402 162.74421,109.140892 L129.37067,87.7616826 L156.709244,52.4843705 C157.43123,51.0220715 157.410338,50.1823224 156.646568,49.9651232 Z" id="Leg-and-Butt" fill="#5C63AB"></path>
                    </g>
                    <g id="Body/Hoodie" transform="translate(16.492041, 61.596244)">
                        <path d="M143.085904,69.1586141 L167.009607,86.7263131 C173.498208,88.4771717 178.919224,90.6555356 183.272656,93.2614047 C184.301012,94.1984585 185.543877,96.096148 181.279035,95.7681798 C177.014193,95.4402115 172.51347,95.2870439 171.925005,96.7417154 C171.336539,98.196387 173.91739,99.9360147 172.727846,101.898748 C171.934816,103.207236 168.188225,99.9262495 161.488072,92.0557879 L137.79733,82.2318354 L143.085904,69.1586141 Z M51.230946,69.7649186 L66.9039899,69.8265533 C57.2266085,101.066804 52.0022605,117.642686 51.230946,119.554198 C49.4954884,123.8551 53.1679501,130.405299 54.7384405,133.925327 C49.6234056,136.214153 50.1684181,127.737697 43.7159392,130.739619 C37.8264157,133.479635 33.3462698,138.44436 26.5417764,134.245779 C25.7052039,133.729588 24.7884568,131.786036 27.0034338,130.267253 C32.5217493,126.48341 40.4739762,119.861004 41.5484472,117.681188 C43.0136805,114.708619 46.2411801,98.7365295 51.230946,69.7649186 Z" id="Skin" fill="#B28B67"></path>
                        <path d="M92.0488004,7.18523308 L98.412514,5.51185507 C124.195125,24.1221272 137.521282,63.0422555 168.747467,81.5455199 L162.442298,90.9304046 C110.916929,89.0787309 94.0374856,41.6601764 92.0488004,7.18523308 Z" id="Coat-Back" fill="#E87613" transform="translate(130.398134, 48.221130) rotate(5.000000) translate(-130.398134, -48.221130) "></path>
                        <path d="M67.5,85.5 C93.5038169,85.5 112.63168,85.5 124.883588,85.5 C127.505725,85.5 127.011634,81.7137278 126.632588,79.8031541 C122.257941,57.7528247 105.180978,33.9836366 105.180978,2.59554772 L88.6288501,0 C74.9381137,22.0188051 70.2036197,49.1284124 67.5,85.5 Z" id="Shirt" fill="#DDE3E9"></path>
                        <path d="M67.961131,21.6434689 C65.5571421,20.9524413 63.6534318,19.3407492 62.25,16.8083926 C56.2001678,5.89205684 58.3850453,-0.118194589 64.8503973,-2.09379817 C71.3157493,-4.06940176 77.0814894,-1.50990331e-14 87.3825235,-4.88498131e-15 C87.9428139,-4.4408921e-15 88.4559769,0.0351244007 88.9220123,0.105373202 L94.1036904,0.401054958 C108.970489,50.7863958 113.070664,84.4027108 106.404214,101.25 L61.2388605,101.25 C58.5628614,107.489903 56.002156,112.739903 53.5567444,117 L41.25,117 C40.0917624,79.5503181 48.9954727,47.7648078 67.961131,21.6434689 Z" id="Coat-Front" fill="#FF9B21"></path>
                        <path d="M71.0739214,75.3732246 C72.494363,87.2580173 74.8030558,95.8836091 78,101.25 L61.2388605,101.25 C64.3603388,93.9713271 67.6386924,85.3457353 71.0739214,75.3732246 Z" id="Shade" fill-opacity="0.1" fill="#000000"></path>
                    </g>
                </g>
            </g>
        </g>
    </g>
</svg>