<?xml version="1.0" encoding="UTF-8"?>
<svg width="720px" height="380px" viewBox="0 0 720 380" version="1.1" xmlns="http://www.w3.org/2000/svg" xmlns:xlink="http://www.w3.org/1999/xlink">
    <!-- Generator: Sketch 51.3 (57544) - http://www.bohemiancoding.com/sketch -->
    <title>story-01</title>
    <desc>Created with Sketch.</desc>
    <defs>
        <ellipse id="path-1" cx="145.25" cy="145.155251" rx="145.25" ry="145.155251"></ellipse>
        <path d="M0.987930101,95.0009024 C12.7623333,40.6878733 61.1264841,-2.27373675e-13 119,-2.27373675e-13 C125.273011,-2.27373675e-13 131.434299,0.478032467 137.449378,1.39963385 C98.7216749,11.7281765 66.3644943,37.6498228 47.5233656,72.0237094 C30.5336459,76.8739358 14.8164698,84.7382304 0.987930101,95.0009024 Z" id="path-3"></path>
        <ellipse id="path-5" cx="36.5153631" cy="36.4788066" rx="36.5153631" ry="36.4788066"></ellipse>
        <path d="M0.248362316,23.8745723 C3.20840781,10.2252247 15.3669932,-2.27373675e-13 29.9162011,-2.27373675e-13 C31.4932151,-2.27373675e-13 33.0421423,0.120133814 34.5543129,0.351740444 C24.8182972,2.94739591 16.6838111,9.46173609 11.9472148,18.1001992 C7.67605624,19.3191043 3.72481084,21.2954715 0.248362316,23.8745723 Z" id="path-7"></path>
        <ellipse id="path-9" cx="18.6634078" cy="18.2394033" rx="18.6634078" ry="18.2394033"></ellipse>
        <path d="M0.126940739,11.9372862 C1.63985288,5.11261236 7.85424097,-2.27373675e-13 15.2905028,-2.27373675e-13 C16.0965322,-2.27373675e-13 16.888206,0.0600669069 17.6610932,0.175870222 C12.6849074,1.47369796 8.52728124,4.73086805 6.10635424,9.05009961 C3.92331763,9.65955214 1.90379221,10.6477358 0.126940739,11.9372862 Z" id="path-11"></path>
        <ellipse id="path-13" cx="14.6061453" cy="14.4395276" rx="14.6061453" ry="14.4395276"></ellipse>
        <path d="M0.0993449264,9.45035155 C1.28336312,4.04748478 6.14679728,-2.27373675e-13 11.9664804,-2.27373675e-13 C12.5972861,-2.27373675e-13 13.2168569,0.0475529679 13.8217251,0.139230593 C9.92731887,1.16667755 6.67352445,3.74527054 4.77888593,7.16466219 C3.07042249,7.64714544 1.48992434,8.42945748 0.0993449264,9.45035155 Z" id="path-15"></path>
        <ellipse id="path-17" cx="14.6061453" cy="14.4395276" rx="14.6061453" ry="14.4395276"></ellipse>
        <path d="M0.0993449264,9.45035155 C1.28336312,4.04748478 6.14679728,-2.27373675e-13 11.9664804,-2.27373675e-13 C12.5972861,-2.27373675e-13 13.2168569,0.0475529679 13.8217251,0.139230593 C9.92731887,1.16667755 6.67352445,3.74527054 4.77888593,7.16466219 C3.07042249,7.64714544 1.48992434,8.42945748 0.0993449264,9.45035155 Z" id="path-19"></path>
        <ellipse id="path-21" cx="29.2122905" cy="28.8790552" rx="29.2122905" ry="28.8790552"></ellipse>
        <path d="M0.198689853,18.9007031 C2.56672625,8.09496956 12.2935946,-2.27373675e-13 23.9329609,-2.27373675e-13 C25.1945721,-2.27373675e-13 26.4337138,0.0951059358 27.6434503,0.278461185 C19.8546377,2.3333551 13.3470489,7.49054107 9.55777186,14.3293244 C6.14084499,15.2942909 2.97984868,16.858915 0.198689853,18.9007031 Z" id="path-23"></path>
        <ellipse id="path-25" cx="55.1787709" cy="54.7182099" rx="55.1787709" ry="54.7182099"></ellipse>
        <path d="M0.375303055,35.8118585 C4.84826069,15.3378371 23.2212342,-2.27373675e-13 45.2067039,-2.27373675e-13 C47.5897473,-2.27373675e-13 49.9303483,0.180200721 52.2154061,0.527610666 C37.5032061,4.42109271 25.2110928,14.1926034 18.0535691,27.1502988 C11.5993739,28.9786564 5.62860305,31.9432073 0.375303055,35.8118585 Z" id="path-27"></path>
        <ellipse id="path-29" cx="145.25" cy="145.155251" rx="145.25" ry="145.155251"></ellipse>
        <path d="M0.987930101,95.0009024 C12.7623333,40.6878733 61.1264841,-2.27373675e-13 119,-2.27373675e-13 C125.273011,-2.27373675e-13 131.434299,0.478032467 137.449378,1.39963385 C98.7216749,11.7281765 66.3644943,37.6498228 47.5233656,72.0237094 C30.5336459,76.8739358 14.8164698,84.7382304 0.987930101,95.0009024 Z" id="path-31"></path>
    </defs>
    <g id="Page-1" stroke="none" stroke-width="1" fill="none" fill-rule="evenodd">
        <g id="Artboard-12" transform="translate(-88.000000, -49.000000)">
            <g id="Group-5" transform="translate(95.000000, 52.000000)">
                <g id="humaaan-12" transform="translate(139.125000, 136.285388) rotate(-12.000000) translate(-139.125000, -136.285388) translate(57.750000, 14.739726)">
                    <g id="Head/Front/Pony" transform="translate(94.500000, 36.726027) rotate(15.000000) translate(-94.500000, -36.726027) translate(57.750000, 8.744292)">
                        <g id="Head" stroke-width="1" transform="translate(29.407131, 16.675351)" fill="#B28B67">
                            <path d="M4.49944023,18.5527408 C1.99008096,15.6432951 0.291694124,12.0777292 0.575495562,8.08241019 C1.39320653,-3.42921629 17.6162498,-0.896805135 20.7719675,4.91327537 C23.9276853,10.7233559 23.552704,25.4611069 19.4742199,26.4995304 C17.8477261,26.9136522 14.3828107,25.8992195 10.8563352,23.7996557 L13.0698361,39.2677618 L0,39.2677618 L4.49944023,18.5527408 Z"></path>
                        </g>
                        <path d="M38.4300678,34.4186389 C36.8093547,37.4915561 34.5678153,39.8056763 32.3284238,39.8056763 C28.0748917,39.8056763 25.0505192,34.188385 25.0505192,28.1488361 C25.0505192,27.9366379 25.0547758,27.7258514 25.0631744,27.5166392 C20.563696,30.5665129 17.0960033,36.578189 11.1424413,36.578189 C3.04267373,36.578189 -0.17408164,20.4407527 11.1424413,20.4407527 C18.8385367,20.4407527 22.6242001,21.5491154 25.8867023,23.1881227 C26.534096,21.3853478 27.5233358,19.8714063 28.7331238,18.8185275 C29.0048259,18.5247586 29.4053621,18.242777 29.915074,17.9791625 C30.3154663,17.7537718 30.7323336,17.5746738 31.1624005,17.4465191 C33.1276658,16.7442172 35.9493418,16.2493166 39.0968707,16.1394024 C39.6908353,16.1186607 40.2741807,16.1124048 40.8432669,16.1196928 C40.8529519,13.1570329 43.28738,10.7582909 46.2890029,10.7582909 C49.2966159,10.7582909 51.734768,13.1666163 51.734768,16.1374363 C51.734768,19.0150045 49.4472773,21.3648364 46.5704822,21.5095202 C44.9303511,22.0086601 42.8257329,22.375503 40.4924764,22.5311068 C40.7197325,23.3750417 40.8432379,24.3338148 40.8432379,25.4173026 C40.8432379,26.3737914 40.7363592,27.3882 40.5395591,28.4181927 C40.0321167,27.8224204 39.353605,27.4336418 38.6649318,27.4336418 C36.7384564,27.4336418 35.3974728,28.9990533 35.3974728,30.6611291 C35.3974728,32.7705633 36.6303334,34.2965847 38.4300678,34.4186389 Z" id="hair" fill="#191847"></path>
                    </g>
                    <g id="Bottom/Standing/Jogging" transform="translate(0.000000, 111.926941)">
                        <polygon id="Leg" fill="#997659" points="70.5714856 0 110.909285 67.0807272 141.15103 123.791828 147.664833 123.791828 96.994366 2.74873075e-13"></polygon>
                        <g id="Accessories/Shoe/Flat-Sneaker" transform="translate(135.714395, 107.457111)" fill="#E4E4E4">
                            <path d="M0.542587548,17.6587692 C0.542587548,17.6587692 0.542587548,17.6587692 0.542587548,17.6587692 C0.542587548,18.6506132 0.705588554,20.0979601 1.03159057,22.0008101 C2.16665038,22.0008101 12.367624,22.0008101 31.6345115,22.0008101 C32.429773,19.335691 31.9707019,17.8968789 30.2572985,17.6843739 C28.543895,17.4718689 27.1205416,17.279994 25.9872384,17.108749 L12.9813709,11.2312426 C12.0628517,10.8161529 10.9817481,11.2242631 10.5666584,12.1427822 C10.5570885,12.1639586 10.547924,12.1853159 10.5391698,12.2068423 L10.126427,13.2217691 C8.54026355,13.9719732 7.25134105,14.3470752 6.25965953,14.3470752 C5.91761952,14.3470752 5.52025655,14.2876297 5.0675706,14.1687387 L5.06756825,14.1687476 C3.14008255,13.6625231 1.16717062,14.814683 0.660946106,16.7421686 C0.582366604,17.0413657 0.542587548,17.3494254 0.542587548,17.6587692 Z" id="shoe"></path>
                        </g>
                        <path d="M132.752052,114.710676 L145.313807,110.930777 C139.81016,94.5648895 133.064659,76.5548301 125.077304,56.900599 C117.089949,37.2463679 108.511827,18.2795016 99.3429374,2.84217094e-14 L63.863977,2.84217094e-14 C74.0578103,23.1227301 84.8646407,44.1326986 96.284468,63.0299055 C107.704295,81.9271123 119.860157,99.1540357 132.752052,114.710676 Z" id="Pant" fill="#DB2721"></path>
                        <path d="M67.92051,2.84217094e-14 C64.1133794,23.5726281 56.7704667,53.6893893 56.0774937,54.6188015 C55.6155118,55.2384097 38.9840422,60.7819531 6.18308507,71.2494319 L7.59014522,76.9630171 C46.7052097,71.3492406 67.3155128,66.9938418 69.4210546,63.8968208 C72.5793674,59.2512892 88.3492493,22.5514876 94.4572191,2.84217094e-14 L67.92051,2.84217094e-14 Z" id="Leg" fill="#B28B67"></path>
                        <path d="M17.7131757,66.3104746 L20.1915589,75.5126167 C49.4473481,78.064956 67.3730163,76.2207305 73.9685636,69.9799402 C80.5641108,63.7391498 88.0810878,40.4125031 96.5194944,-1.13686838e-13 L62.688187,-1.13686838e-13 C57.3418111,33.0924023 54.3528391,50.3331946 53.7212708,51.722377 C53.0897026,53.1115594 41.0870042,57.9742586 17.7131757,66.3104746 Z" id="Pant" fill="#FF4133"></path>
                        <g id="Accessories/Shoe/Flat-Sneaker" transform="translate(13.300011, 83.157764) rotate(80.000000) translate(-13.300011, -83.157764) translate(-3.257145, 72.358054)" fill="#E4E4E4">
                            <path d="M0.542587548,17.6587692 C0.542587548,17.6587692 0.542587548,17.6587692 0.542587548,17.6587692 C0.542587548,18.6506132 0.705588554,20.0979601 1.03159057,22.0008101 C2.16665038,22.0008101 12.367624,22.0008101 31.6345115,22.0008101 C32.429773,19.335691 31.9707019,17.8968789 30.2572985,17.6843739 C28.543895,17.4718689 27.1205416,17.279994 25.9872384,17.108749 L12.9813709,11.2312426 C12.0628517,10.8161529 10.9817481,11.2242631 10.5666584,12.1427822 C10.5570885,12.1639586 10.547924,12.1853159 10.5391698,12.2068423 L10.126427,13.2217691 C8.54026355,13.9719732 7.25134105,14.3470752 6.25965953,14.3470752 C5.91761952,14.3470752 5.52025655,14.2876297 5.0675706,14.1687387 L5.06756825,14.1687476 C3.14008255,13.6625231 1.16717062,14.814683 0.660946106,16.7421686 C0.582366604,17.0413657 0.542587548,17.3494254 0.542587548,17.6587692 Z" id="shoe"></path>
                        </g>
                    </g>
                    <g id="Body/Trench-Coat" transform="translate(81.375000, 104.931507) rotate(10.000000) translate(-81.375000, -104.931507) translate(12.250000, 54.214612)">
                        <path d="M106.618937,48.7831363 L122.898434,62.6163534 C127.465034,64.2012522 131.244366,66.0398814 134.23643,68.1322411 C134.927072,68.8576515 135.723373,70.2845336 132.68053,69.8344263 C129.637687,69.384319 126.416865,69.04804 125.921731,70.0643735 C125.426597,71.0807069 127.19061,72.4611742 126.238803,73.8125985 C125.604266,74.7135481 123.081391,72.1662743 118.67018,66.1707772 L102.169136,57.9169864 L106.618937,48.7831363 Z M29.3269452,38.0776168 L38.6816428,40.4604695 C26.1572566,61.5629561 19.4596659,72.7153866 18.5888707,73.917761 C16.6295815,76.6231034 18.0520436,81.8441431 18.535242,84.5796336 C14.5681197,85.2887368 16.4234468,79.4557051 11.3990808,80.4303868 C6.8130726,81.320031 2.82326262,84.0111978 -1.19368303,79.888829 C-1.68754289,79.382008 -1.98895355,77.8629832 -0.179239526,77.1869072 C4.32941807,75.5025554 11.0302099,72.2572976 12.1592113,70.9201267 C13.6988064,69.0966552 19.4213844,58.1491519 29.3269452,38.0776168 Z" id="Skin" fill="#B28B67" transform="translate(66.651699, 61.359023) rotate(-4.000000) translate(-66.651699, -61.359023) "></path>
                        <path d="M109.653573,47.3953684 C111.866918,47.2361272 114.27449,47.6036526 116.855733,48.4753853 C118.125915,48.9043492 118.808662,50.2841648 118.380689,51.5572898 C118.132166,52.2965932 117.563744,52.8373469 116.882033,53.0768451 C117.375558,53.4377086 117.873452,53.7965813 118.375767,54.1534274 L114.035458,63.0339305 C95.7730858,53.9077679 78.608135,47.0272754 70.7869281,31.9598122 C68.1619289,26.902782 69.0511782,9.72478269 68.8008557,3.47552187 L74.5689255,1.10431636 C82.6087132,17.7626527 93.4896975,33.7441658 109.653573,47.3953684 Z" id="Back-Arm" fill="#69A1AC"></path>
                        <path d="M48.5381899,61.5753283 C65.4932948,63.4422543 78.8388223,63.4422543 88.5747722,61.5753283 C89.7809912,61.3440287 89.7280203,56.1322192 89.1686377,54.708825 C80.4575957,32.5428713 74.7274027,16.3163539 74.7274027,0.920381772 C73.1290362,1.75722247 70.331744,1.88263351 66.3355262,1.29661489 C55.5957515,17.1626592 50.6590595,35.3671297 48.5381899,61.5753283 Z" id="Shirt" fill="#191847"></path>
                        <path d="M45.3871433,64.198025 C44.8109341,63.6562472 44.510493,62.843813 44.6580899,62.0067494 L44.9416452,60.3986272 C45.1319561,59.319321 46.0082219,58.5332572 47.0430412,58.4097266 C47.2240637,57.5986677 47.3801389,56.7930452 47.5090385,55.993322 C48.5979278,49.2376013 46.7371603,42.6134132 46.8249854,36.1084398 C38.1494805,43.5276545 30.3644224,56.3354025 23.4698111,74.5316868 L13.2843932,71.5317206 C13.6748868,70.0798172 14.0793866,68.6457959 14.4978926,67.2296567 C13.3244472,66.5486938 11.9611664,63.496251 12.947079,62.9842587 C13.9652497,62.4555144 15.0437082,62.0829175 16.1792951,61.8630006 C25.5307641,33.6688154 40.8122895,13.0457207 62.0238712,-0.00628346808 L64.9372364,-0.00743739768 L64.9363079,-3.55271368e-15 L68.1413759,-1.0658141e-14 C66.3355262,23.9365045 91.2785696,76.194923 82.6177122,120.825493 C66.6094201,124.408707 43.755512,113.260135 21.5093283,122.167109 C22.3370799,104.194539 38.9173577,83.0809711 45.3871452,64.19802 Z" id="Coat-Front" fill="#89C5CC"></path>
                        <polygon id="Shade-Lapel" fill-opacity="0.1" fill="#000000" points="64.2353104 0.540562427 61.4529098 9.11682596 67.0560468 15.5460584 61.9922231 20.5984051 74.2430721 41.6233069 59.261671 20.6404097 64.2353104 15.5460584 59.261671 9.86443089"></polygon>
                        <path d="M70.650032,49.7317433 C69.4586141,49.7317433 68.4927791,48.7636712 68.4927791,47.5694936 C68.4927791,46.3753161 69.4586141,45.4072439 70.650032,45.4072439 C71.8414499,45.4072439 72.8072849,46.3753161 72.8072849,47.5694936 C72.8072849,48.7636712 71.8414499,49.7317433 70.650032,49.7317433 Z M73.3465981,62.1646792 C72.1551802,62.1646792 71.1893452,61.196607 71.1893452,60.0024294 C71.1893452,58.8082519 72.1551802,57.8401797 73.3465981,57.8401797 C74.538016,57.8401797 75.503851,58.8082519 75.503851,60.0024294 C75.503851,61.196607 74.538016,62.1646792 73.3465981,62.1646792 Z M73.8859113,74.597615 C72.6944935,74.597615 71.7286584,73.6295428 71.7286584,72.4353653 C71.7286584,71.2411877 72.6944935,70.2731156 73.8859113,70.2731156 C75.0773292,70.2731156 76.0431642,71.2411877 76.0431642,72.4353653 C76.0431642,73.6295428 75.0773292,74.597615 73.8859113,74.597615 Z" id="Buttons" fill-opacity="0.4" fill="#000000"></path>
                    </g>
                </g>
                <g id="Group-4" transform="translate(24.500000, 5.995434)">
                    <g id="Group-2">
                        <ellipse id="Oval-11" fill="#D8D8D8" opacity="0.463671875" cx="138.25" cy="138.159817" rx="133" ry="132.913242"></ellipse>
                        <ellipse id="Oval-11" stroke="#979797" stroke-width="1.75" opacity="0.223158482" cx="138.25" cy="138.159817" rx="138.25" ry="138.159817"></ellipse>
                    </g>
                    <path d="M18.9416703,248.344359 C29.1786863,250.629907 39.823447,251.835616 50.75,251.835616 C114.14922,251.835616 168.061403,211.243276 187.882366,154.646729 C179.837671,213.49173 129.342074,258.83105 68.25,258.83105 C50.6856464,258.83105 33.9971961,255.083309 18.9416766,248.34436 Z" id="Combined-Shape" fill="#FFFFFF" opacity="0.805357143" transform="translate(103.412018, 206.738889) scale(-1, 1) translate(-103.412018, -206.738889) "></path>
                    <g id="Oval-11" transform="translate(168.000000, 188.876712) scale(-1, 1) translate(-168.000000, -188.876712) translate(22.750000, 43.721461)">
                        <g id="Group">
                            <mask id="mask-2" fill="white">
                                <use xlink:href="#path-1"></use>
                            </mask>
                            <use id="Mask" fill="#FFFFFF" opacity="0" xlink:href="#path-1"></use>
                            <g mask="url(#mask-2)">
                                <g transform="translate(57.750000, -15.739726)">
                                    <mask id="mask-4" fill="white">
                                        <use xlink:href="#path-3"></use>
                                    </mask>
                                    <use id="Mask" stroke="none" fill="#FFFFFF" fill-rule="evenodd" opacity="0.656696429" xlink:href="#path-3"></use>
                                </g>
                            </g>
                        </g>
                    </g>
                </g>
                <g id="Group-3" transform="translate(259.000000, 298.054795)">
                    <g id="Group-2">
                        <ellipse id="Oval-11" fill="#D8D8D8" opacity="0.463671875" cx="34.7555866" cy="34.7207918" rx="33.4357542" ry="33.4022807"></ellipse>
                        <ellipse id="Oval-11" stroke="#979797" stroke-width="0.875" opacity="0.223158482" cx="34.7555866" cy="34.7207918" rx="34.7555866" ry="34.7207918"></ellipse>
                    </g>
                    <path d="M4.76187399,62.4111481 C7.335425,62.9855265 10.0114816,63.2885319 12.7583799,63.2885319 C28.6967314,63.2885319 42.2500734,53.0873155 47.232997,38.8640994 C45.2105877,53.652372 32.516164,65.0465467 17.1578212,65.0465467 C12.7422016,65.0465467 8.54678113,64.1047059 4.76187399,62.4111481 Z" id="Combined-Shape" fill="#FFFFFF" opacity="0.805357143" transform="translate(25.997435, 51.955323) scale(-1, 1) translate(-25.997435, -51.955323) "></path>
                    <g id="Oval-11" transform="translate(42.234637, 47.466399) scale(-1, 1) translate(-42.234637, -47.466399) translate(5.719274, 10.987592)">
                        <g id="Group">
                            <mask id="mask-6" fill="white">
                                <use xlink:href="#path-5"></use>
                            </mask>
                            <use id="Mask" fill="#FFFFFF" opacity="0" xlink:href="#path-5"></use>
                            <g mask="url(#mask-6)">
                                <g transform="translate(14.518156, -3.955533)">
                                    <mask id="mask-8" fill="white">
                                        <use xlink:href="#path-7"></use>
                                    </mask>
                                    <use id="Mask" stroke="none" fill="#FFFFFF" fill-rule="evenodd" opacity="0.656696429" xlink:href="#path-7"></use>
                                </g>
                            </g>
                        </g>
                    </g>
                </g>
                <g id="Group-3-Copy-2" transform="translate(365.500000, 57.716895)">
                    <g id="Group-2">
                        <ellipse id="Oval-11" fill="#D8D8D8" opacity="0.463671875" cx="17.7639665" cy="17.3603959" rx="17.0893855" ry="16.7011404"></ellipse>
                        <ellipse id="Oval-11" stroke="#979797" stroke-width="0.875" opacity="0.223158482" cx="17.7639665" cy="17.3603959" rx="17.7639665" ry="17.3603959"></ellipse>
                    </g>
                    <path d="M2.4338467,31.2055741 C3.74921722,31.4927633 5.1169795,31.6442659 6.52094972,31.6442659 C14.6672177,31.6442659 21.5944811,26.5436584 24.1413091,19.432051 C23.1076337,26.826186 16.6193727,32.5232733 8.76955307,32.5232733 C6.51268082,32.5232733 4.3683548,32.052353 2.4338467,31.2055741 Z" id="Combined-Shape" fill="#FFFFFF" opacity="0.805357143" transform="translate(13.287578, 25.977662) scale(-1, 1) translate(-13.287578, -25.977662) "></path>
                    <g id="Oval-11" transform="translate(21.586592, 23.733199) scale(-1, 1) translate(-21.586592, -23.733199) translate(2.923184, 5.493796)">
                        <g id="Group">
                            <mask id="mask-10" fill="white">
                                <use xlink:href="#path-9"></use>
                            </mask>
                            <use id="Mask" fill="#FFFFFF" opacity="0" xlink:href="#path-9"></use>
                            <g mask="url(#mask-10)">
                                <g transform="translate(7.420391, -1.977767)">
                                    <mask id="mask-12" fill="white">
                                        <use xlink:href="#path-11"></use>
                                    </mask>
                                    <use id="Mask" stroke="none" fill="#FFFFFF" fill-rule="evenodd" opacity="0.656696429" xlink:href="#path-11"></use>
                                </g>
                            </g>
                        </g>
                    </g>
                </g>
                <g id="Group-3-Copy-3" transform="translate(334.000000, 168.657534)">
                    <g id="Group-2">
                        <ellipse id="Oval-11" fill="#D8D8D8" opacity="0.463671875" cx="13.9022346" cy="13.7436468" rx="13.3743017" ry="13.2217361"></ellipse>
                        <ellipse id="Oval-11" stroke="#979797" stroke-width="0.875" opacity="0.223158482" cx="13.9022346" cy="13.7436468" rx="13.9022346" ry="13.7436468"></ellipse>
                    </g>
                    <path d="M1.90474959,24.7044128 C2.93417,24.9317709 4.00459265,25.0517105 5.10335196,25.0517105 C11.4786922,25.0517105 16.9000287,21.0137296 18.8931984,15.3837071 C18.0842351,21.2373973 13.0064656,25.7475914 6.86312849,25.7475914 C5.09688064,25.7475914 3.41871245,25.3747794 1.90474959,24.7044128 Z" id="Combined-Shape" fill="#FFFFFF" opacity="0.805357143" transform="translate(10.398974, 20.565649) scale(-1, 1) translate(-10.398974, -20.565649) "></path>
                    <g id="Oval-11" transform="translate(16.893855, 18.788783) scale(-1, 1) translate(-16.893855, -18.788783) translate(2.287709, 4.349255)">
                        <g id="Group">
                            <mask id="mask-14" fill="white">
                                <use xlink:href="#path-13"></use>
                            </mask>
                            <use id="Mask" fill="#FFFFFF" opacity="0" xlink:href="#path-13"></use>
                            <g mask="url(#mask-14)">
                                <g transform="translate(5.807263, -1.565732)">
                                    <mask id="mask-16" fill="white">
                                        <use xlink:href="#path-15"></use>
                                    </mask>
                                    <use id="Mask" stroke="none" fill="#FFFFFF" fill-rule="evenodd" opacity="0.656696429" xlink:href="#path-15"></use>
                                </g>
                            </g>
                        </g>
                    </g>
                </g>
                <g id="Group-3-Copy-4" transform="translate(666.500000, 290.315068)">
                    <g id="Group-2">
                        <ellipse id="Oval-11" fill="#D8D8D8" opacity="0.463671875" cx="13.9022346" cy="13.7436468" rx="13.3743017" ry="13.2217361"></ellipse>
                        <ellipse id="Oval-11" stroke="#979797" stroke-width="0.875" opacity="0.223158482" cx="13.9022346" cy="13.7436468" rx="13.9022346" ry="13.7436468"></ellipse>
                    </g>
                    <path d="M1.90474959,24.7044128 C2.93417,24.9317709 4.00459265,25.0517105 5.10335196,25.0517105 C11.4786922,25.0517105 16.9000287,21.0137296 18.8931984,15.3837071 C18.0842351,21.2373973 13.0064656,25.7475914 6.86312849,25.7475914 C5.09688064,25.7475914 3.41871245,25.3747794 1.90474959,24.7044128 Z" id="Combined-Shape" fill="#FFFFFF" opacity="0.805357143" transform="translate(10.398974, 20.565649) scale(-1, 1) translate(-10.398974, -20.565649) "></path>
                    <g id="Oval-11" transform="translate(16.893855, 18.788783) scale(-1, 1) translate(-16.893855, -18.788783) translate(2.287709, 4.349255)">
                        <g id="Group">
                            <mask id="mask-18" fill="white">
                                <use xlink:href="#path-17"></use>
                            </mask>
                            <use id="Mask" fill="#FFFFFF" opacity="0" xlink:href="#path-17"></use>
                            <g mask="url(#mask-18)">
                                <g transform="translate(5.807263, -1.565732)">
                                    <mask id="mask-20" fill="white">
                                        <use xlink:href="#path-19"></use>
                                    </mask>
                                    <use id="Mask" stroke="none" fill="#FFFFFF" fill-rule="evenodd" opacity="0.656696429" xlink:href="#path-19"></use>
                                </g>
                            </g>
                        </g>
                    </g>
                </g>
                <g id="Group-3-Copy" transform="translate(650.750000, 57.716895)">
                    <g id="Group-2">
                        <ellipse id="Oval-11" fill="#D8D8D8" opacity="0.463671875" cx="27.8044693" cy="27.4872935" rx="26.7486034" ry="26.4434722"></ellipse>
                        <ellipse id="Oval-11" stroke="#979797" stroke-width="0.875" opacity="0.223158482" cx="27.8044693" cy="27.4872935" rx="27.8044693" ry="27.4872935"></ellipse>
                    </g>
                    <path d="M3.80949919,49.4088256 C5.86834,49.8635418 8.00918531,50.1034211 10.2067039,50.1034211 C22.9573843,50.1034211 33.8000574,42.0274591 37.7863968,30.7674141 C36.1684702,42.4747945 26.0129312,51.4951828 13.726257,51.4951828 C10.1937613,51.4951828 6.83742491,50.7495589 3.80949919,49.4088256 Z" id="Combined-Shape" fill="#FFFFFF" opacity="0.805357143" transform="translate(20.797948, 41.131297) scale(-1, 1) translate(-20.797948, -41.131297) "></path>
                    <g id="Oval-11" transform="translate(33.787709, 37.577566) scale(-1, 1) translate(-33.787709, -37.577566) translate(4.575419, 8.698511)">
                        <g id="Group">
                            <mask id="mask-22" fill="white">
                                <use xlink:href="#path-21"></use>
                            </mask>
                            <use id="Mask" fill="#FFFFFF" opacity="0" xlink:href="#path-21"></use>
                            <g mask="url(#mask-22)">
                                <g transform="translate(11.614525, -3.131464)">
                                    <mask id="mask-24" fill="white">
                                        <use xlink:href="#path-23"></use>
                                    </mask>
                                    <use id="Mask" stroke="none" fill="#FFFFFF" fill-rule="evenodd" opacity="0.656696429" xlink:href="#path-23"></use>
                                </g>
                            </g>
                        </g>
                    </g>
                </g>
                <g id="Group-3" transform="translate(0.000000, 235.095890)">
                    <g id="Group-2">
                        <ellipse id="Oval-11" fill="#D8D8D8" opacity="0.463671875" cx="52.5195531" cy="52.0811877" rx="50.5251397" ry="50.1034211"></ellipse>
                        <ellipse id="Oval-11" stroke="#979797" stroke-width="1.3125" opacity="0.223158482" cx="52.5195531" cy="52.0811877" rx="52.5195531" ry="52.0811877"></ellipse>
                    </g>
                    <path d="M7.19572069,93.6167222 C11.0846422,94.4782898 15.1284611,94.9327978 19.2793296,94.9327978 C43.3639497,94.9327978 63.8445555,79.6309732 71.3743066,58.296149 C68.3182214,80.4785581 49.1355366,97.56982 25.9273743,97.56982 C19.2548824,97.56982 12.9151359,96.1570589 7.19572069,93.6167222 Z" id="Combined-Shape" fill="#FFFFFF" opacity="0.805357143" transform="translate(39.285012, 77.932985) scale(-1, 1) translate(-39.285012, -77.932985) "></path>
                    <g id="Oval-11" transform="translate(63.821229, 71.199598) scale(-1, 1) translate(-63.821229, -71.199598) translate(8.642458, 16.481389)">
                        <g id="Group">
                            <mask id="mask-26" fill="white">
                                <use xlink:href="#path-25"></use>
                            </mask>
                            <use id="Mask" fill="#FFFFFF" opacity="0" xlink:href="#path-25"></use>
                            <g mask="url(#mask-26)">
                                <g transform="translate(21.938547, -5.933300)">
                                    <mask id="mask-28" fill="white">
                                        <use xlink:href="#path-27"></use>
                                    </mask>
                                    <use id="Mask" stroke="none" fill="#FFFFFF" fill-rule="evenodd" opacity="0.656696429" xlink:href="#path-27"></use>
                                </g>
                            </g>
                        </g>
                    </g>
                </g>
                <g id="humaaan-3" transform="translate(534.345653, 148.013998) scale(-1, 1) rotate(20.000000) translate(-534.345653, -148.013998) translate(453.845653, 29.091623)">
                    <g id="Head/Front/Short-Beard" transform="translate(65.625000, 36.726027) rotate(-15.000000) translate(-65.625000, -36.726027) translate(29.750000, 8.744292)">
                        <g id="Head" stroke-width="1" transform="translate(28.566881, 16.704742)" fill="#B28B67">
                            <path d="M4.3708777,18.5854409 C1.93321837,15.6708671 0.283359546,12.0990167 0.559051924,8.09665581 C1.35339843,-3.43526044 17.1129005,-0.898385796 20.17845,4.92193524 C23.2439994,10.7422563 22.8797324,25.5059833 18.9177829,26.546237 C17.3377629,26.9610888 13.9718506,25.9448681 10.5461371,23.8416037 L12.6963916,39.336973 L0,39.336973 L4.3708777,18.5854409 Z"></path>
                        </g>
                        <path d="M39.7478025,26.0749863 C40.2338013,32.9709066 41.5193967,36.4188667 43.6045886,36.4188667 C46.7325597,36.4188667 49.3864209,34.3961653 50.7588995,34.3961653 C51.7593898,34.3961653 51.536011,35.6714895 50.8728337,36.6170517 C50.3256911,37.397171 47.6611523,38.1491127 47.6611523,39.3585596 C47.6611523,40.5680064 49.766359,39.6323241 49.766359,40.3496233 C49.766359,41.5361239 50.1363459,43.7669571 48.1146816,43.7669571 C46.0686899,43.7669571 40.2024693,43.007481 39.197158,39.9143493 C38.5483595,37.9181326 38.1288646,33.7815981 37.9386734,27.5047458 C37.814557,27.4897228 37.6882437,27.4819949 37.5601585,27.4819949 C35.8071526,27.4819949 34.3860606,28.929537 34.3860606,30.7151707 C34.3860606,31.6216553 34.7522943,32.4410093 35.3422655,33.0280845 C34.6078223,34.0840409 33.7847221,35.1871288 32.8415373,36.3253722 C29.2981961,34.159944 26.6688354,27.820924 30.1330266,21.7314027 C31.0905399,18.7482409 33.2582161,17.1548221 35.8182939,16.4149465 C37.8920888,15.5313256 40.0448842,15.4316966 41.8621501,15.9614194 C45.4244945,16.2726623 48.6054972,17.3791357 49.5070189,18.036243 C49.5070189,21.4716132 48.8535301,22.4908774 43.2718448,22.4010331 C41.9003343,23.1388353 40.8459861,24.4093298 39.7478025,26.0749863 Z" id="Hair" fill="#191847"></path>
                    </g>
                    <g id="Bottom/Standing/Baggy-Pants" transform="translate(0.000000, 108.429224)">
                        <polygon id="Leg" fill="#997659" points="71.8744749 0 98.2007217 67.059987 115.857844 123.753554 122.830259 123.753554 95.8363992 2.74788089e-13"></polygon>
                        <path d="M66.5732647,0 C66.2929277,23.5653399 62.2045865,55.2922451 61.5514073,56.7611885 C61.1159545,57.740484 46.0834231,70.1939337 16.453813,94.1215375 L21.2561096,99.2935376 C56.2163047,78.7786194 74.5052951,67.153068 76.1230809,64.4168835 C78.5497596,60.3126068 86.4501894,22.5445151 92.7931654,0 L66.5732647,0 Z" id="Leg" fill="#B28B67"></path>
                        <g id="Accessories/Shoe/Flat-Sneaker" transform="translate(27.623399, 102.025701) rotate(50.000000) translate(-27.623399, -102.025701) translate(11.263910, 91.229331)" fill="#E4E4E4">
                            <path d="M0.539277409,17.617615 C0.539277409,17.617615 0.539277409,17.617615 0.539277409,17.617615 C0.539277409,18.6071474 0.701284003,20.0511213 1.02529719,21.9495367 C2.1534324,21.9495367 12.2921734,21.9495367 31.4415203,21.9495367 C32.2319302,19.2906286 31.7756598,17.8551698 30.0727092,17.64316 C28.3697586,17.4311503 26.9550886,17.2397225 25.8286992,17.0688765 L12.9833074,11.2418712 C12.0298838,10.8093734 10.9063725,11.2316671 10.4738746,12.1850907 C10.4631876,12.2086498 10.4529839,12.2324253 10.4432701,12.2564021 L10.0646492,13.1909554 C8.48816236,13.9394111 7.20710313,14.3136389 6.22147151,14.3136389 C5.88423415,14.3136389 5.49288639,14.2552758 5.04742824,14.1385496 L5.04742444,14.1385641 C3.12599771,13.6350804 1.16021942,14.7845504 0.656735748,16.7059771 C0.578752498,17.0035818 0.539277409,17.3099627 0.539277409,17.617615 Z" id="shoe"></path>
                        </g>
                        <g id="Accessories/Shoe/Flat-Sneaker" transform="translate(111.566349, 107.423887)" fill="#E4E4E4">
                            <path d="M0.539277409,17.617615 C0.539277409,17.617615 0.539277409,17.617615 0.539277409,17.617615 C0.539277409,18.6071474 0.701284003,20.0511213 1.02529719,21.9495367 C2.1534324,21.9495367 12.2921734,21.9495367 31.4415203,21.9495367 C32.2319302,19.2906286 31.7756598,17.8551698 30.0727092,17.64316 C28.3697586,17.4311503 26.9550886,17.2397225 25.8286992,17.0688765 L12.9833074,11.2418712 C12.0298838,10.8093734 10.9063725,11.2316671 10.4738746,12.1850907 C10.4631876,12.2086498 10.4529839,12.2324253 10.4432701,12.2564021 L10.0646492,13.1909554 C8.48816236,13.9394111 7.20710313,14.3136389 6.22147151,14.3136389 C5.88423415,14.3136389 5.49288639,14.2552758 5.04742824,14.1385496 L5.04742444,14.1385641 C3.12599771,13.6350804 1.16021942,14.7845504 0.656735748,16.7059771 C0.578752498,17.0035818 0.539277409,17.3099627 0.539277409,17.617615 Z" id="shoe"></path>
                        </g>
                        <polygon id="Pant" fill="#69A1AC" points="89.5749053 117.91412 122.725379 114.293254 98.1569322 2.84217094e-14 68.465304 2.84217094e-14"></polygon>
                        <path d="M23.310908,85.7774225 L45.055641,111.680874 C67.9588998,86.5058978 81.3115595,70.0792211 85.1136201,62.4008442 C88.9156806,54.7224673 92.3335396,33.9221859 95.3671969,0 L61.9397843,0 C60.2826467,29.8432595 59.1656206,45.4592657 58.5887061,46.8480186 C58.0117915,48.2367715 46.2525255,61.2132395 23.310908,85.7774225 Z" id="Pant" fill="#89C5CC"></path>
                    </g>
                    <g id="Body/Hoodie" transform="translate(79.625000, 103.182648) rotate(-10.000000) translate(-79.625000, -103.182648) translate(10.500000, 52.465753)">
                        <path d="M102.901511,49.8705684 L120.108678,62.5415043 C124.775308,63.8047543 128.674199,65.3761793 131.805353,67.2557793 C132.545018,67.9316164 133.439052,69.3002129 130.371844,69.0632707 C127.304635,68.8263286 124.067804,68.7154152 123.644743,69.7643534 C123.221681,70.8132916 125.077947,72.0680428 124.222655,73.4832947 C123.65246,74.4267959 120.957664,72.0604147 116.138265,66.384151 L99.0994301,59.2974396 L102.901511,49.8705684 Z M36.8308813,50.3141688 L48.1038361,50.364851 C41.1557612,72.886613 37.4047181,84.8364831 36.8507067,86.2144614 C35.604181,89.3149127 38.2482291,94.039361 39.3792153,96.5780838 C35.7011074,98.2263926 36.0897356,92.1147064 31.4499471,94.2766573 C27.2149632,96.2499858 23.9945685,99.8279902 19.0987242,96.7979162 C18.496809,96.4253864 17.8366592,95.0236337 19.4291899,93.9294053 C23.3967645,91.2032833 29.1138141,86.4313995 29.8857659,84.8600826 C30.93846,82.7173112 33.2534985,71.2020066 36.8308813,50.3141688 Z" id="Skin" fill="#B28B67"></path>
                        <path d="M66.1988575,5.1814819 L70.7754579,3.97476004 C89.3175723,17.395172 98.9013622,45.4616159 121.358339,58.8048615 L116.823842,65.5725765 C79.7682744,64.2372804 67.6290629,30.0423727 66.1988575,5.1814819 Z" id="Coat-Back" fill="#E87613" transform="translate(93.778598, 34.773668) rotate(5.000000) translate(-93.778598, -34.773668) "></path>
                        <path d="M48.5440643,61.6565528 C67.2452637,61.6565528 81.001474,61.6565528 89.8126952,61.6565528 C91.6984612,61.6565528 91.3431245,58.9261611 91.0705256,57.5483905 C87.924405,41.6472525 75.6431432,24.5065952 75.6431432,1.87172544 L63.7393273,0 C53.8933424,15.8784049 50.4884301,35.4279363 48.5440643,61.6565528 Z" id="Shirt" fill="#DDE3E9"></path>
                        <path d="M48.8756965,15.607739 C47.1468166,15.1094187 45.7777227,13.9471804 44.7684148,12.121024 C40.417549,4.24893466 41.9888503,-0.0852335781 46.638546,-1.50989915 C51.2882418,-2.93456473 55.4347967,-1.13242749e-14 62.843005,-3.77475828e-15 C63.2459498,-3.33066907e-15 63.6150019,0.0253292335 63.9501612,0.0759877006 L67.6766755,0.28921247 C78.368451,36.6235567 81.3171789,60.8652655 76.5228592,73.0143389 L44.0412323,73.0143389 C42.1167305,77.5141158 40.2751446,81.3000445 38.5164747,84.3721249 L29.6658171,84.3721249 C28.8328458,57.3660631 35.2361389,34.4446011 48.8756965,15.607739 Z" id="Coat-Front" fill="#FF9B21"></path>
                        <path d="M51.1143261,54.3538386 C52.1358669,62.9243105 53.7962126,69.1444773 56.0953632,73.0143389 L44.0412323,73.0143389 C46.28611,67.7654748 48.6438079,61.5453081 51.1143261,54.3538386 Z" id="Shade" fill-opacity="0.1" fill="#000000"></path>
                    </g>
                </g>
                <g id="Group-4" transform="translate(405.750000, 22.739726)">
                    <g id="Group-2">
                        <ellipse id="Oval-11" fill="#D8D8D8" opacity="0.463671875" cx="138.25" cy="138.159817" rx="133" ry="132.913242"></ellipse>
                        <ellipse id="Oval-11" stroke="#979797" stroke-width="1.75" opacity="0.223158482" cx="138.25" cy="138.159817" rx="138.25" ry="138.159817"></ellipse>
                    </g>
                    <path d="M18.9416703,248.344359 C29.1786863,250.629907 39.823447,251.835616 50.75,251.835616 C114.14922,251.835616 168.061403,211.243276 187.882366,154.646729 C179.837671,213.49173 129.342074,258.83105 68.25,258.83105 C50.6856464,258.83105 33.9971961,255.083309 18.9416766,248.34436 Z" id="Combined-Shape" fill="#FFFFFF" opacity="0.805357143" transform="translate(103.412018, 206.738889) scale(-1, 1) translate(-103.412018, -206.738889) "></path>
                    <g id="Oval-11" transform="translate(168.000000, 188.876712) scale(-1, 1) translate(-168.000000, -188.876712) translate(22.750000, 43.721461)">
                        <g id="Group">
                            <mask id="mask-30" fill="white">
                                <use xlink:href="#path-29"></use>
                            </mask>
                            <use id="Mask" fill="#FFFFFF" opacity="0" xlink:href="#path-29"></use>
                            <g mask="url(#mask-30)">
                                <g transform="translate(57.750000, -15.739726)">
                                    <mask id="mask-32" fill="white">
                                        <use xlink:href="#path-31"></use>
                                    </mask>
                                    <use id="Mask" stroke="none" fill="#FFFFFF" fill-rule="evenodd" opacity="0.656696429" xlink:href="#path-31"></use>
                                </g>
                            </g>
                        </g>
                    </g>
                </g>
            </g>
        </g>
    </g>
</svg>