<?xml version="1.0" encoding="UTF-8"?>
<svg width="488px" height="488px" viewBox="0 0 488 488" version="1.1" xmlns="http://www.w3.org/2000/svg" xmlns:xlink="http://www.w3.org/1999/xlink">
    <!-- Generator: Sketch 59 (86127) - https://sketch.com -->
    <title>chrome-bw</title>
    <desc>Created with Sketch.</desc>
    <g id="Page-1" stroke="none" stroke-width="1" fill="none" fill-rule="evenodd">
        <g id="chrome-bw" transform="translate(1.000000, 0.000000)" fill="#D7D7DB">
            <path d="M306.012101,153.999238 L469.18389,153.997442 C480.038071,181.55936 486,211.583438 486,243 C486,377.205194 377.205194,486 243,486 C238.305861,486 233.642809,485.866899 229.014412,485.604265 L332.02874,307.178762 C345.470501,288.573351 352.610992,266.1267 352.517124,243.321045 C352.659592,208.63114 336.063226,174.771759 306.012101,153.999238 L306.012101,153.999238 Z M41.1491863,107.657977 L143.292656,284.575563 C152.555298,306.763674 169.008337,325.200941 189.740588,336.975995 C219.603969,354.502011 257.124914,357.186384 290.120603,341.764735 L290.120603,341.764735 L208.268104,483.536624 C90.5156217,466.684646 0,365.412851 0,243 C0,192.898458 15.1625308,146.338315 41.1491863,107.657977 Z M243,0 C338.410069,0 420.977299,54.9867352 460.740463,134.998981 L251.757963,134.99705 C243.959196,134.477748 236.162476,134.812378 228.505857,135.964219 C178.964189,142.609321 140.060593,182.842606 135.45658,233.002566 L135.45658,233.002566 L53.4411181,90.9452146 C97.97799,35.4946703 166.343883,0 243,0 Z" id="Combined-Shape"></path>
            <circle id="Oval" cx="243" cy="243" r="90"></circle>
        </g>
    </g>
</svg>