<?xml version="1.0" encoding="UTF-8"?>
<svg width="488px" height="488px" viewBox="0 0 488 488" version="1.1" xmlns="http://www.w3.org/2000/svg" xmlns:xlink="http://www.w3.org/1999/xlink">
    <!-- Generator: Sketch 59 (86127) - https://sketch.com -->
    <title>edge</title>
    <desc>Created with Sketch.</desc>
    <g id="Page-1" stroke="none" stroke-width="1" fill="none" fill-rule="evenodd">
        <g id="edge" transform="translate(14.000000, 0.000000)" fill="#0078D7" fill-rule="nonzero">
            <path d="M141.378129,288.5625 C141.378129,300.256875 143.124475,310.888125 146.693096,320.45625 C150.489501,329.8725 155.424828,338.301563 161.72686,345.6675 C168.028893,353.033438 175.393919,359.33625 184.049723,364.651875 C192.401814,369.9675 201.513187,374.371875 211.231984,377.789063 C220.874853,381.282188 230.973291,383.864063 241.223585,385.534688 C251.625735,387.205313 261.724173,388.040625 271.974467,388.040625 C284.882244,388.040625 296.878885,387.053438 308.2681,385.003125 C319.657316,382.876875 330.742819,380.067188 341.676466,376.498125 C352.610113,372.929063 363.164119,368.676563 373.718125,363.816563 C384.34806,358.956563 395.12985,353.640938 406.215354,347.717813 L406.215354,450.689063 C393.839073,456.764063 381.690576,461.851875 369.54208,466.25625 C357.393583,470.50875 345.245087,474.229688 332.868806,477.19125 C320.492525,480.22875 307.964388,482.506875 295.132538,483.87375 C282.300689,485.240625 269.165127,486 255.498068,486 C237.275323,486 219.660003,483.87375 202.728036,479.697188 C185.796069,475.520625 169.927096,469.521563 155.045187,461.624063 C140.163279,453.726563 126.572148,444.158438 114.195868,432.919688 C101.743659,421.680938 91.1896523,408.999375 82.3060642,394.950938 C73.4224761,380.9025 66.5889467,365.487188 61.65362,348.932813 C56.8701495,332.378438 54.4404502,314.760938 54.4404502,296.080312 C54.4404502,276.10875 57.1738619,257.124375 62.6406854,238.975313 C68.1834369,220.750313 76.0040316,204.195937 86.3302537,189.008437 C96.5805476,173.820937 109.108685,160.304062 123.914665,148.53375 C138.720645,136.763438 155.3489,127.119375 173.875357,119.6775 C163.776919,129.777187 155.880396,141.699375 150.337645,155.595937 C144.643037,169.416562 141.074416,183.313125 139.479926,197.209688 L312.444146,197.209688 C312.444146,179.744062 310.697799,164.556562 307.129179,151.495312 C303.560558,138.434063 297.86595,127.575 289.893499,118.994062 C281.996976,110.337187 271.82261,103.806562 259.294473,99.5540625 C246.766336,95.225625 231.656644,93.0234375 213.965396,93.0234375 C193.085167,93.0234375 172.204939,96.0609375 151.32471,102.36375 C130.444482,108.43875 110.627247,117.171562 91.7970771,128.1825 C72.9669074,139.345312 55.6552998,152.4825 39.8622543,167.518125 C24.0692088,182.705625 10.7817907,199.032187 0,216.725625 C2.2778431,196.2225 6.83352931,176.47875 13.1355619,157.722187 C19.4375945,138.965625 27.7896859,121.5 37.8121955,105.325313 C47.8347052,89.3784375 59.6035612,74.7984375 73.0428355,61.7371875 C86.4821099,48.6759375 101.364018,37.4371875 117.840417,28.3246875 C134.316815,19.2121875 151.780279,11.84625 170.762305,6.9103125 C189.744331,2.581875 209.941206,0 231.201075,0 C243.653284,0 256.029565,1.1390625 268.405846,3.34125 C280.782127,5.619375 292.854695,8.656875 304.623551,12.605625 C328.009407,20.655 348.889635,31.89375 367.264237,46.17 C385.638838,60.598125 401.052243,77.000625 413.58038,95.7571875 C426.108517,114.51375 435.59953,135.244687 442.129347,157.798125 C448.659163,180.351562 452,203.81625 452,228.192187 L452,288.5625 L141.378129,288.5625 Z" id="Path"></path>
        </g>
    </g>
</svg>