<?xml version="1.0" encoding="UTF-8"?>
<svg width="473px" height="488px" viewBox="0 0 473 488" version="1.1" xmlns="http://www.w3.org/2000/svg" xmlns:xlink="http://www.w3.org/1999/xlink">
    <!-- Generator: Sketch 59 (86127) - https://sketch.com -->
    <title>firefox</title>
    <desc>Created with Sketch.</desc>
    <defs>
        <radialGradient cx="102.391669%" cy="41.2993106%" fx="102.391669%" fy="41.2993106%" r="183.501402%" gradientTransform="translate(1.023917,0.412993),scale(1.000000,0.360784),rotate(2.273667),translate(-1.023917,-0.412993)" id="radialGradient-1">
            <stop stop-color="#FFEA00" offset="10%"></stop>
            <stop stop-color="#FFDE00" offset="17%"></stop>
            <stop stop-color="#FFBF00" offset="28%"></stop>
            <stop stop-color="#FF8E00" offset="43%"></stop>
            <stop stop-color="#FF272D" offset="77%"></stop>
            <stop stop-color="#E0255A" offset="87%"></stop>
            <stop stop-color="#CC2477" offset="95%"></stop>
            <stop stop-color="#C42482" offset="100%"></stop>
        </radialGradient>
        <radialGradient cx="66.5667265%" cy="7.92932735%" fx="66.5667265%" fy="7.92932735%" r="109.679934%" gradientTransform="translate(0.665667,0.079293),scale(1.000000,0.993228),translate(-0.665667,-0.079293)" id="radialGradient-2">
            <stop stop-color="#00CCDA" offset="0%"></stop>
            <stop stop-color="#0083FF" offset="22%"></stop>
            <stop stop-color="#007AF9" offset="26%"></stop>
            <stop stop-color="#0060E8" offset="33%"></stop>
            <stop stop-color="#005FE7" offset="33%"></stop>
            <stop stop-color="#2639AD" offset="44%"></stop>
            <stop stop-color="#401E84" offset="52%"></stop>
            <stop stop-color="#4A1475" offset="57%"></stop>
        </radialGradient>
        <linearGradient x1="56.5201401%" y1="75.2217804%" x2="36.7954165%" y2="6.80527029%" id="linearGradient-3">
            <stop stop-color="#000F43" stop-opacity="0.4" offset="0%"></stop>
            <stop stop-color="#001962" stop-opacity="0.17" offset="48%"></stop>
            <stop stop-color="#002079" stop-opacity="0" offset="100%"></stop>
        </linearGradient>
        <radialGradient cx="134.218866%" cy="-12.0209757%" fx="134.218866%" fy="-12.0209757%" r="173.916398%" gradientTransform="translate(1.342189,-0.120210),scale(0.912621,1.000000),rotate(5.552729),translate(-1.342189,0.120210)" id="radialGradient-4">
            <stop stop-color="#FFEA00" offset="0%"></stop>
            <stop stop-color="#FF272D" offset="50%"></stop>
            <stop stop-color="#C42482" offset="100%"></stop>
        </radialGradient>
        <radialGradient cx="112.211279%" cy="-43.948317%" fx="112.211279%" fy="-43.948317%" r="454.252552%" gradientTransform="translate(1.122113,-0.439483),scale(1.000000,0.545455),rotate(5.575177),translate(-1.122113,0.439483)" id="radialGradient-5">
            <stop stop-color="#FFE900" offset="0%"></stop>
            <stop stop-color="#FFAF0E" offset="16%"></stop>
            <stop stop-color="#FF7A1B" offset="32%"></stop>
            <stop stop-color="#FF4E26" offset="47%"></stop>
            <stop stop-color="#FF2C2E" offset="62%"></stop>
            <stop stop-color="#FF1434" offset="76%"></stop>
            <stop stop-color="#FF0538" offset="89%"></stop>
            <stop stop-color="#FF0039" offset="100%"></stop>
        </radialGradient>
        <radialGradient cx="200.891658%" cy="16.0102425%" fx="200.891658%" fy="16.0102425%" r="378.588865%" gradientTransform="translate(2.008917,0.160102),scale(0.532258,1.000000),rotate(5.605278),translate(-2.008917,-0.160102)" id="radialGradient-6">
            <stop stop-color="#FF272D" offset="0%"></stop>
            <stop stop-color="#C42482" offset="50%"></stop>
            <stop stop-color="#620700" offset="99%"></stop>
        </radialGradient>
        <radialGradient cx="76.8450054%" cy="39.1793718%" fx="76.8450054%" fy="39.1793718%" r="84.0428786%" gradientTransform="translate(0.768450,0.391794),scale(1.000000,0.958420),translate(-0.768450,-0.391794)" id="radialGradient-7">
            <stop stop-color="#FFEA00" offset="16%"></stop>
            <stop stop-color="#FFDE00" offset="23%"></stop>
            <stop stop-color="#FFBF00" offset="37%"></stop>
            <stop stop-color="#FF8E00" offset="54%"></stop>
            <stop stop-color="#FF272D" offset="76%"></stop>
            <stop stop-color="#F92433" offset="80%"></stop>
            <stop stop-color="#E91C45" offset="84%"></stop>
            <stop stop-color="#CF0E62" offset="89%"></stop>
            <stop stop-color="#B5007F" offset="94%"></stop>
        </radialGradient>
        <radialGradient cx="28.7395538%" cy="3.35553196%" fx="28.7395538%" fy="3.35553196%" r="241.105864%" gradientTransform="translate(0.287396,0.033555),scale(1.000000,0.396104),translate(-0.287396,-0.033555)" id="radialGradient-8">
            <stop stop-color="#FFEA00" offset="28%"></stop>
            <stop stop-color="#FFDD00" offset="40%"></stop>
            <stop stop-color="#FFBA00" offset="63%"></stop>
            <stop stop-color="#FF9100" offset="86%"></stop>
            <stop stop-color="#FF6711" offset="93%"></stop>
            <stop stop-color="#FF4A1D" offset="99%"></stop>
        </radialGradient>
        <linearGradient x1="-100.953048%" y1="71.2363826%" x2="120.566073%" y2="33.03362%" id="linearGradient-9">
            <stop stop-color="#C42482" stop-opacity="0.5" offset="0%"></stop>
            <stop stop-color="#FF272D" stop-opacity="0.5" offset="47%"></stop>
            <stop stop-color="#FF2C2C" stop-opacity="0.51" offset="49%"></stop>
            <stop stop-color="#FF7A1A" stop-opacity="0.72" offset="68%"></stop>
            <stop stop-color="#FFB20D" stop-opacity="0.87" offset="83%"></stop>
            <stop stop-color="#FFD605" stop-opacity="0.96" offset="94%"></stop>
            <stop stop-color="#FFE302" offset="100%"></stop>
        </linearGradient>
        <linearGradient x1="53.545031%" y1="97.8500072%" x2="36.7962429%" y2="8.81105628%" id="linearGradient-10">
            <stop stop-color="#891551" stop-opacity="0.6" offset="0%"></stop>
            <stop stop-color="#C42482" stop-opacity="0" offset="100%"></stop>
        </linearGradient>
        <linearGradient x1="26.8496919%" y1="5.85465743%" x2="48.3102608%" y2="46.8611845%" id="linearGradient-11">
            <stop stop-color="#891551" stop-opacity="0.5" offset="1%"></stop>
            <stop stop-color="#FF272D" stop-opacity="0.5" offset="48%"></stop>
            <stop stop-color="#FF272D" stop-opacity="0" offset="100%"></stop>
        </linearGradient>
        <linearGradient x1="47.6139339%" y1="55.8272967%" x2="50.1152426%" y2="47.3440255%" id="linearGradient-12">
            <stop stop-color="#C42482" offset="0%"></stop>
            <stop stop-color="#C42482" stop-opacity="0.81" offset="8%"></stop>
            <stop stop-color="#C42482" stop-opacity="0.57" offset="21%"></stop>
            <stop stop-color="#C42482" stop-opacity="0.36" offset="33%"></stop>
            <stop stop-color="#C42482" stop-opacity="0.2" offset="45%"></stop>
            <stop stop-color="#C42482" stop-opacity="0.09" offset="56%"></stop>
            <stop stop-color="#C42482" stop-opacity="0.02" offset="67%"></stop>
            <stop stop-color="#C42482" stop-opacity="0" offset="77%"></stop>
        </linearGradient>
        <linearGradient x1="40.9216203%" y1="1.64707394%" x2="58.8044211%" y2="89.4597546%" id="linearGradient-13">
            <stop stop-color="#FFF14F" offset="0%"></stop>
            <stop stop-color="#FFEE4C" offset="27%"></stop>
            <stop stop-color="#FFE643" offset="45%"></stop>
            <stop stop-color="#FFD834" offset="61%"></stop>
            <stop stop-color="#FFC41E" offset="76%"></stop>
            <stop stop-color="#FFAB02" offset="89%"></stop>
            <stop stop-color="#FFA900" offset="90%"></stop>
            <stop stop-color="#FFA000" offset="95%"></stop>
            <stop stop-color="#FF9100" offset="100%"></stop>
        </linearGradient>
        <linearGradient x1="70.1313929%" y1="7.15839811%" x2="43.2974387%" y2="81.9454787%" id="linearGradient-14">
            <stop stop-color="#FF8E00" offset="0%"></stop>
            <stop stop-color="#FF8E00" stop-opacity="0.86" offset="4%"></stop>
            <stop stop-color="#FF8E00" stop-opacity="0.73" offset="8%"></stop>
            <stop stop-color="#FF8E00" stop-opacity="0.63" offset="13%"></stop>
            <stop stop-color="#FF8E00" stop-opacity="0.56" offset="18%"></stop>
            <stop stop-color="#FF8E00" stop-opacity="0.51" offset="23%"></stop>
            <stop stop-color="#FF8E00" stop-opacity="0.5" offset="28%"></stop>
            <stop stop-color="#FF8E00" stop-opacity="0.48" offset="39%"></stop>
            <stop stop-color="#FF8E00" stop-opacity="0.42" offset="52%"></stop>
            <stop stop-color="#FF8E00" stop-opacity="0.31" offset="68%"></stop>
            <stop stop-color="#FF8E00" stop-opacity="0.17" offset="84%"></stop>
            <stop stop-color="#FF8E00" stop-opacity="0" offset="100%"></stop>
        </linearGradient>
    </defs>
    <g id="Page-1" stroke="none" stroke-width="1" fill="none" fill-rule="evenodd">
        <g id="firefox" fill-rule="nonzero">
            <path d="M382.013307,45 C370.223244,58.8047348 364.734342,89.8802426 376.686857,121.381578 C388.639372,152.882913 406.961967,146.039964 418.382821,178.160234 C433.45638,220.54493 426.441415,277.482034 426.441415,277.482034 C426.441415,277.482034 444.562176,330.269795 457.194035,274.1992 C485.150514,168.876204 382.013307,70.9358684 382.013307,45 Z" id="Path" fill="url(#radialGradient-1)"></path>
            <path d="M236.881196,484 C358.489521,484 457,384.801771 457,262.5 C457,140.198229 358.489521,41 237.000206,41 C115.510891,41 17,140.16843 17,262.485101 C16.7673511,384.920964 115.391881,484 236.881196,484 Z" id="_Path_" fill="url(#radialGradient-2)"></path>
            <path d="M402.385275,398.429227 C397.624482,401.786559 392.630069,404.799982 387.440096,407.446532 C394.315418,397.368821 400.658748,386.938544 406.444093,376.198444 C411.13803,371.00531 415.439979,365.956015 418.943066,360.5 C420.649952,357.816632 422.5702,354.508303 424.609532,350.669252 C436.974535,328.398789 450.609778,292.359328 451,255.337784 L451,252.530416 C451.062583,243.237422 450.112536,233.965056 448.163572,224.878338 C448.26281,225.58762 448.352123,226.296902 448.441437,227.006184 C448.332276,226.460582 448.238,225.910021 448.123877,225.364419 C448.307466,226.356422 448.451361,227.348425 448.620065,228.340427 C451.145661,249.777608 449.349461,270.684067 440.343651,286.09979 C440.199756,286.322991 440.055862,286.536271 439.911967,286.754512 C444.581095,263.328366 446.144087,237.456933 440.949,211.5607 C440.949,211.5607 438.869972,198.972185 423.393872,160.750317 C414.462489,138.752655 398.668828,120.713084 384.691215,107.574007 C372.440335,92.4211642 361.315802,82.2779356 355.18292,75.8001573 C342.371348,62.3188393 337.002595,52.2053708 334.794558,45.6085522 C332.884235,44.6512695 308.427133,20.9027225 306.487038,20 C295.814036,36.5416466 262.246924,88.2845125 278.204327,136.634729 C285.438747,158.543111 303.743119,181.274855 322.895972,194.041931 C323.73453,195.004173 334.308294,206.441966 339.31483,232.313399 C344.5,259.023074 341.79577,279.860093 331.107882,310.68162 C318.55929,337.718656 286.441047,364.443211 256.322441,367.176179 C191.981754,373.019075 168.422752,334.881528 168.422752,334.881528 C191.4161,344.047634 216.835807,342.147948 232.29206,332.639601 C247.872361,323.002294 257.294969,315.859874 264.946186,318.677162 C272.478319,321.44485 278.50204,313.295547 273.093592,304.863523 C264.587972,291.768998 249.080052,285.019536 233.696272,287.716755 C218.101086,290.251322 203.810874,302.596797 183.377856,290.638203 C182.055428,289.870681 180.775082,289.032892 179.542324,288.128436 C178.197654,287.240593 183.923663,289.47756 182.583955,288.470677 C178.614452,286.313071 171.568584,281.606018 169.742612,279.929533 C169.439938,279.651772 172.828901,281.010816 172.526226,280.733055 C153.41803,265.004851 155.804694,254.380501 156.405081,247.714242 C156.901269,242.382227 160.374585,235.552288 166.204793,232.77964 C169.028102,234.322204 170.789569,235.497728 170.789569,235.497728 C170.789569,235.497728 169.583832,233.017721 168.933826,231.738037 C169.162072,231.638837 169.380395,231.663637 169.608642,231.569396 C171.920877,232.6854 177.05146,235.587008 179.735837,237.357733 C183.243885,239.83774 184.36527,242.039986 184.36527,242.039986 C184.36527,242.039986 185.28818,241.543985 184.60344,239.376459 C184.355346,238.493576 183.288542,235.681248 179.815227,232.84412 L180.03355,232.84412 C182.113063,234.023393 184.084013,235.384447 185.9233,236.911332 C186.915676,233.350042 188.667219,229.630031 188.280193,222.978652 C188.042022,218.301359 188.151184,217.091116 187.327512,215.285671 C186.588192,213.733186 187.739348,213.128065 189.024474,214.740069 C188.806186,213.47738 188.438063,212.245212 187.927899,211.069659 L187.927899,210.950618 C189.530586,205.375563 221.792724,190.882402 224.149617,189.186077 C228.008355,186.461425 231.243836,182.948198 233.641691,178.879168 C235.437892,176.0222 236.787523,172.009549 237.115007,165.928571 C237.293634,161.543919 235.24934,158.622471 202.624985,155.205021 C193.693603,154.327099 188.468744,147.8642 185.491617,141.902264 C184.950772,140.61762 184.395041,139.452017 183.839311,138.291374 C183.309878,136.932019 182.885226,135.534179 182.56907,134.110082 C187.90309,118.798519 196.864243,105.838002 210.042994,96.0667745 C210.762467,95.4120526 207.175028,96.2354149 207.889539,95.5707731 C208.728096,94.8069309 214.196087,92.5947647 215.228158,92.0987633 C216.488475,91.5035616 209.829634,88.6763536 203.949807,89.3657956 C197.960819,90.0403575 196.690578,90.7545995 193.495128,92.1086833 C194.819949,90.7893196 199.037546,89.0582747 198.050133,89.0681947 C191.59969,90.0601975 183.571369,93.8099681 176.714052,98.0557401 C176.698725,97.3156493 176.839031,96.5805881 177.125888,95.898134 C173.930438,97.2522178 166.080746,102.737993 163.793319,107.375606 C163.892501,106.486364 163.937241,105.591895 163.92729,104.697199 C161.492544,106.726421 159.296832,109.026144 157.382571,111.551938 L157.263486,111.661058 C138.725906,104.221037 122.41621,103.725036 108.612262,107.058165 C105.590478,104.027597 104.116799,106.244723 97.2445969,91.1514006 C96.7781802,90.243718 97.6018522,92.0491631 97.2445969,91.1514006 C96.1132884,88.2249924 97.9342981,95.0549316 97.2445969,91.1514006 C85.6933423,100.262946 70.4901448,110.589695 63.1912207,117.880916 C63.1019068,118.173557 71.7058052,115.450509 63.1912207,117.880916 C60.2140932,118.734038 60.4125684,120.499803 59.9610374,136.480968 C59.851876,137.691212 59.9610374,139.050256 59.851876,140.141459 C54.0216681,147.58148 50.0521648,153.850937 48.5487155,157.109667 C41.0116211,170.094983 32.7054355,190.34176 24.6572676,222.358651 C28.2116826,213.696652 32.4924963,205.350626 37.4539538,197.40978 C30.7603789,214.407748 24.2900886,241.097583 23,282.196259 C24.6170354,273.71438 26.6924871,265.326283 29.2172345,257.068828 C27.6344089,291.169851 33.5154351,325.205367 46.4498406,356.79983 C51.0792738,368.118581 58.7354532,385.30007 71.755424,404.118363 C112.72566,447.215924 170.486894,474 234.445516,474 C301.222485,474 361.186793,444.800398 402.385275,398.429227 Z" id="Path" fill="url(#linearGradient-3)"></path>
            <path d="M352.422498,429.858613 C433.813174,420.543238 469.858544,337.643319 423.57375,336.013376 C381.781509,334.674846 313.89348,434.254521 352.422498,429.858613 Z" id="Path" fill="url(#radialGradient-4)"></path>
            <path d="M428.978505,318.030627 C484.879334,285.745023 470.281759,216 470.281759,216 C470.281759,216 448.704688,240.873926 434.052235,280.521697 C419.59435,319.803092 395.368164,337.532696 428.978505,318.030627 Z" id="Path" fill="url(#radialGradient-5)"></path>
            <path d="M252.87757,471.182445 C330.744659,495.973578 397.681548,434.76907 356.417922,414.32944 C318.932267,395.898961 215.920233,459.46074 252.87757,471.182445 Z" id="Path" fill="url(#radialGradient-6)"></path>
            <path d="M434.330616,348.276854 C436.212872,345.618958 438.758871,337.104764 441.007672,333.296435 C454.66889,311.220028 454.767956,293.626342 454.767956,293.209806 C463.020163,251.942991 462.272214,235.093119 457.195076,203.952096 C453.108598,178.860762 435.242024,142.914698 419.762944,125.603661 C403.813299,107.752119 415.05235,113.578664 399.607943,100.551998 C386.070558,85.5319084 372.949251,70.6556235 365.801631,64.6703981 C314.148558,21.4250377 315.312585,12.2463698 316.3082,10.6794012 C316.139787,10.8628753 315.892122,11.1356072 315.580064,11.4926381 C314.965854,9.05292733 314.534916,7 314.534916,7 C314.534916,7 286.301073,35.2649415 280.357106,82.3731773 C276.478668,113.1175 287.975291,145.19077 304.628305,165.680373 C313.299881,176.29924 323.098954,185.942838 333.852809,194.441191 L333.852809,194.441191 C346.434205,212.530753 353.358927,234.85014 353.358927,258.860464 C353.358927,318.98049 304.648118,367.720158 244.559566,367.720158 C236.370768,367.725419 228.207438,366.807218 220.223974,364.982922 C191.871252,359.567954 175.495623,345.24705 167.332575,335.522919 C162.651701,329.95423 160.665426,325.893004 160.665426,325.893004 C186.065978,335.002249 214.161128,333.098084 231.235173,323.651643 C248.447911,314.101068 258.859759,307.014998 267.315052,309.806781 C275.646513,312.588646 282.278989,304.515782 276.330069,296.150351 C270.500028,287.794838 255.328052,275.819428 232.800418,279.146758 C215.567867,281.66085 199.781681,293.904032 177.204514,282.042674 C175.751708,281.288697 174.338186,280.461166 172.969437,279.563294 C171.483446,278.685593 177.808817,280.8972 176.332732,279.900489 C171.93915,277.758304 164.16246,273.09211 162.146464,271.435883 C161.809639,271.158193 165.554339,272.506976 165.217514,272.229285 C144.106525,256.63398 146.741683,246.10157 147.385613,239.501458 C147.915617,234.215418 151.749475,227.44175 158.213539,224.694596 C161.334122,226.221894 163.280771,227.387203 163.280771,227.387203 C163.280771,227.387203 161.948332,224.947493 161.230103,223.663173 C161.482721,223.568957 161.725433,223.588792 161.973099,223.494575 C164.529004,224.600379 170.18568,227.461585 173.162616,229.231863 C177.041055,231.68645 178.274428,233.873264 178.274428,233.873264 C178.274428,233.873264 179.294809,233.377387 178.541906,231.230244 C178.264521,230.352543 177.090588,227.565719 173.251776,224.749142 L173.489534,224.749142 C175.767569,225.913741 177.943209,227.269 179.993225,228.80045 C181.077999,225.269812 183.024648,221.580493 182.59371,214.98534 C182.331185,210.348898 182.455018,209.143919 181.54361,207.353806 C180.726314,205.81659 181.999314,205.21658 183.415959,206.813301 C183.173135,205.552545 182.766828,204.328948 182.207353,203.17357 L182.207353,203.05456 C183.975683,197.530499 219.619671,183.160008 222.215203,181.478988 C226.39586,178.852254 229.970385,175.365071 232.701352,171.249063 C234.682674,168.412651 236.168666,164.440683 236.540164,158.410829 C236.663996,155.693427 235.826888,153.541325 226.385887,151.468562 C220.719305,150.233831 211.951954,149.03381 198.434382,147.764367 C188.577304,146.891625 182.791843,140.484905 179.507801,134.574061 C178.908451,133.29966 178.294241,132.144268 177.684984,130.993835 C177.104278,129.653077 176.635416,128.266502 176.283199,126.848311 C182.182024,111.39033 192.804723,98.1910418 206.637057,89.1319694 C207.429586,88.4823716 203.466941,89.2956085 204.25947,88.6360932 C205.185738,87.8823615 211.223818,85.6955476 212.368031,85.2046302 C213.75991,84.6145375 206.424064,81.8128372 199.905514,82.4921875 C193.287898,83.1616204 191.886112,83.8707233 188.354405,85.2145477 C189.840397,83.9054346 194.481644,82.1897031 193.386964,82.1996206 C186.254203,83.1913729 177.387786,86.9005267 169.809228,91.1253916 C169.795671,90.3874502 169.95158,89.6562486 170.264932,88.9881653 C166.733225,90.3319897 158.059987,95.7667925 155.538754,100.393317 C155.646122,99.51324 155.694112,98.6269187 155.6824,97.7403797 C153.023,99.723901 150.596887,102.002966 148.450574,104.533883 L148.316835,104.642976 C127.864635,97.2494622 109.839555,96.7535861 94.6081401,100.085874 C91.269612,97.0808644 85.9051819,92.5336799 78.3167175,77.573096 C77.8213869,76.6706014 77.5241885,79.4326316 77.1279241,78.5648483 C74.1559406,71.7167985 72.3975171,60.4951208 72.6699489,52.7792877 C72.6699489,52.7792877 66.5674762,55.561153 61.5200576,67.1894491 C60.5838828,69.2770877 59.9795795,70.4324792 59.3802295,71.5878706 C59.1028444,71.9250664 60.0092994,67.7696242 59.8755601,67.9977272 C58.998825,69.4853557 56.7252576,71.5630768 55.7296432,74.2556844 C55.046087,76.2391891 54.0851457,77.364828 53.4709357,79.8541263 L53.3272899,80.0822294 C53.2777568,79.3483326 53.5105622,77.0673023 53.3272899,77.5334259 C50.9589593,82.3072665 48.9200302,87.2378969 47.2248172,92.2907006 C44.5054523,101.216472 41.3402899,113.419984 40.840006,129.268186 C40.7211267,130.468207 40.840006,131.81699 40.7161734,132.898 C34.2768759,140.251843 29.888247,146.480048 28.2338429,149.713161 C19.9073359,162.605941 10.7338136,182.659173 1.83767644,214.405165 C5.79464682,205.731325 10.5261136,197.43301 15.9744111,189.611357 C8.57912559,206.466188 1.43150537,232.931099 0,273.682202 C1.79284108,265.248466 4.0870001,256.929396 6.8702351,248.769384 C5.59228221,275.943398 8.75744459,309.633224 25.9156958,347.666926 C36.1046457,369.981354 59.5585485,415.40361 116.868296,450.809169 L116.868296,450.809169 C116.868296,450.809169 136.364508,465.33834 169.868668,476.227781 C172.345321,477.125317 174.851694,478.012935 177.412553,478.870801 C176.610117,478.540217 175.832448,478.209633 175.079546,477.879049 C197.387191,484.571744 220.548525,487.981034 243.836383,488 C330.608393,488.074263 356.202124,453.189374 356.202124,453.189374 L355.949506,453.377807 C357.174623,452.224069 358.35351,451.024048 359.486166,449.777746 C345.795229,462.710197 314.534916,463.582939 302.869881,462.670527 C322.792077,456.814229 335.903477,451.855467 361.403095,442.081748 C364.375079,440.970986 367.426315,439.708154 370.556804,438.293254 L371.547466,437.827131 C372.166629,437.539523 372.780839,437.266791 373.404955,436.964306 C385.829618,431.10025 397.512519,423.775829 408.206881,415.145755 C433.815472,394.666069 439.412708,374.702095 442.300485,361.541541 C441.894314,362.801067 440.631221,365.741612 439.739626,367.650736 C433.146776,381.773289 418.519664,390.461039 402.634412,397.899182 C410.191494,387.969977 417.199371,377.633644 423.626522,366.936674 C428.842353,361.744851 430.442271,353.691822 434.330616,348.276854 Z" id="Path" fill="url(#radialGradient-7)"></path>
            <path d="M403.658394,396.853586 C414.091953,385.339382 423.456418,372.170383 430.55896,357.217772 C448.822638,318.780941 477.084318,254.868192 454.81154,188.116527 C437.240793,135.366213 413.102051,106.52125 382.469557,78.340186 C332.702273,32.5806389 318.804059,12.1483769 318.804059,0 C318.804059,0 261.345242,64.1158833 286.266005,130.986456 C311.186769,197.857028 362.221128,195.394653 395.986659,265.188367 C435.716345,347.303864 363.839616,436.915484 304.420794,462 C308.058681,461.19242 436.57261,432.08487 443.308888,358.51089 C443.135655,359.863462 440.240194,380.211498 403.658394,396.853586 Z" id="Path" fill="url(#radialGradient-8)"></path>
            <path d="M236.989949,158.394318 C237.183919,154.051603 234.920941,151.135001 198.852565,147.767787 C184.011413,146.401095 178.331589,132.749023 176.595811,127 C171.318846,140.64712 169.135446,154.972635 170.30921,172.298931 C171.109956,183.648423 178.76429,195.829815 182.429816,203 C182.429816,203 183.245482,201.94527 183.618501,201.55903 C190.511877,194.413604 219.398409,183.524629 222.109009,181.979672 C225.103102,180.078186 236.487618,171.798801 236.989949,158.394318 Z" id="Path" fill="url(#linearGradient-9)"></path>
            <path d="M77.7931711,77.7487677 C77.2973978,76.8479126 76.9999339,79.6049253 76.6033152,78.7387184 C73.6286755,71.9031088 71.8538071,60.8206106 72.2801721,53 C72.2801721,53 66.1722452,55.7768117 61.1203153,67.3839838 C60.1833038,69.46783 59.5784604,70.6211226 58.9785747,71.7694654 C58.7009417,72.1060487 59.6082068,67.9581552 59.474348,68.1858439 C58.5968293,69.6707699 56.3212299,71.7447167 55.334641,74.3136387 C54.5166151,76.4123342 53.6738005,77.5408781 53.0491262,80.1394987 C52.8557746,80.8473134 53.2424778,77.0112544 53.0491262,77.4765313 C41.3092146,100.126603 39.0633616,134.438295 40.3027949,132.953369 C65.3294306,106.293996 94,99.9682114 94,99.9682114 C90.9509943,97.725973 84.3175476,91.2417959 77.7882134,77.7487677 L77.7931711,77.7487677 Z" id="Path" fill="url(#linearGradient-10)"></path>
            <path d="M173.327788,357.48355 C138.808322,342.650731 99.5555505,321.734314 101.040898,274.206514 C103.06097,211.621684 159.048651,223.993161 159.048651,223.993161 C156.934507,224.491409 151.285237,228.557106 149.28497,232.871926 C147.170826,238.267944 143.308924,250.450087 155.003556,263.215181 C173.367397,283.239735 117.275741,310.728033 203.85167,362.650373 C206.03513,363.846166 183.551927,361.93788 173.332739,357.488532 L173.327788,357.48355 Z" id="Path" fill="url(#linearGradient-11)"></path>
            <path d="M161.390442,326.383157 C185.968377,334.916983 214.582979,333.419473 231.743787,323.973256 C243.222438,317.601398 257.942355,307.396509 267,309.9155 C259.155343,306.821306 253.214682,305.37834 246.070973,305.026277 C244.853013,305.026277 243.396433,305.026277 242.093961,304.8676 C239.476316,304.858343 236.86034,305.00073 234.259247,305.294043 C229.834821,305.700652 224.928182,308.482452 220.468958,308.036174 C220.230337,308.036174 224.793958,306.166765 224.44597,306.246103 C222.084619,306.741968 219.514475,306.846099 216.805135,307.178328 C215.080106,307.371715 213.598669,307.584937 211.888554,307.674193 C160.684522,312.003089 117.434514,280 117.434514,280 C113.750807,292.39661 133.924201,316.842726 161.440154,326.398033 L161.390442,326.383157 Z" id="Path" fill="url(#linearGradient-12)"></path>
            <path d="M403.845108,397 C455.434433,346.282174 481.536174,284.634252 470.501131,215.492966 C470.501131,215.492966 474.909205,250.951307 458.193194,287.218 C466.221832,251.81421 467.157928,207.816111 445.810963,162.245943 C417.346692,101.426209 370.517097,69.4244363 352.637156,56.0742468 C325.549789,35.845635 314.326535,15.2500418 314.113561,11 C306.020535,27.6034303 281.538389,84.4954712 311.483575,133.492452 C339.536756,179.394887 383.72646,193.002955 414.667177,235.156228 C471.66506,312.703373 403.845108,397 403.845108,397 Z" id="Path" fill="url(#linearGradient-13)"></path>
            <path d="M396.699531,265.24905 C378.591751,227.924574 356.001798,211.644749 334.610739,194 C337.098071,197.474353 337.709955,198.700303 339.087937,200.948706 C357.907094,220.960978 385.655775,269.770673 365.508382,331.043367 C327.586512,446.376992 175.918928,392.067893 160,376.810521 C166.432242,443.562766 278.397025,475.501996 351.325613,432.241339 C392.814318,393.030785 426.378382,326.417514 396.699531,265.24905 Z" id="Path" fill="url(#linearGradient-14)"></path>
        </g>
    </g>
</svg>