<?xml version="1.0" encoding="UTF-8"?>
<svg width="488px" height="488px" viewBox="0 0 488 488" version="1.1" xmlns="http://www.w3.org/2000/svg" xmlns:xlink="http://www.w3.org/1999/xlink">
    <!-- Generator: Sketch 59 (86127) - https://sketch.com -->
    <title>firefox-bw</title>
    <desc>Created with Sketch.</desc>
    <g id="Page-1" stroke="none" stroke-width="1" fill="none" fill-rule="evenodd">
        <g id="firefox-bw" transform="translate(7.000000, 0.000000)" fill="#D7D7DB" fill-rule="nonzero">
            <path d="M470.153807,222.140095 L470.153807,222.140095 C469.48266,217.738114 468.811513,215.148713 468.811513,215.148713 C468.811513,215.148713 467.087885,217.144075 464.23551,220.906321 C463.348516,210.421855 461.453456,200.046922 458.57652,189.924907 C454.970399,177.265107 450.185396,164.970205 444.284137,153.201116 C440.571952,145.392903 436.204048,137.912748 431.227275,130.840881 C429.437549,128.170245 427.612232,125.580844 425.751324,123.07268 C417.056918,108.891905 407.081232,100.225029 395.534451,83.8356474 C388.014751,71.2500056 382.889941,57.3845658 380.418387,42.9383521 C377.251338,51.6401185 374.822586,60.5923902 373.157796,69.7005673 C361.305948,57.7588617 350.994688,49.2747673 344.771324,43.4866957 C314.066343,14.8509731 317.635625,0 317.635625,0 L317.635625,0 C317.635625,0 260.283054,63.9277275 285.13075,130.521014 C293.703683,153.122019 308.511586,172.836201 327.840112,187.381202 C351.879382,207.182499 377.764306,222.764597 391.416048,262.580437 C380.42902,241.626087 363.825543,224.133776 343.459536,212.056665 C349.591616,226.508052 352.705824,242.057068 352.611542,257.751967 C352.588413,290.76608 337.515515,321.974035 311.65765,342.545696 C285.799785,363.117358 251.96978,370.814933 219.739667,363.460432 C210.375753,361.709204 201.310216,358.631794 192.817515,354.321371 C180.160929,346.672085 169.186753,336.542456 160.556694,324.543266 L160.40416,324.284326 L162.326082,324.984988 C166.808259,326.53495 171.396045,327.76172 176.054091,328.655844 C194.486101,332.555367 213.690909,330.291303 230.706821,322.212806 C247.882086,312.692951 258.284866,305.640643 266.719965,308.428057 L266.872498,308.428057 C275.109304,311.047921 281.607228,303.066474 275.719437,294.719466 C265.548687,281.40758 248.790702,274.87369 232.277915,277.781741 C215.087397,280.279751 199.330693,292.480396 176.801505,280.660545 C175.351451,279.905776 173.941199,279.077091 172.576329,278.177767 C171.050994,277.309556 177.411638,279.50293 175.932064,278.512866 C171.012179,276.051734 166.280954,273.23127 161.776961,270.074466 C161.441388,269.800295 165.178457,271.14069 164.82763,270.866518 C158.986342,266.89634 153.97194,261.83213 150.062394,255.954618 C146.019829,248.661135 145.64695,239.893951 149.055673,232.284452 C151.152728,228.55205 154.347543,225.553172 158.207679,223.693735 C161.121068,225.125521 162.920962,226.206977 162.920962,226.206977 C162.920962,226.206977 161.593921,223.769894 160.877014,222.490425 C161.136321,222.399035 161.365121,222.490425 161.624428,222.322876 C164.171736,223.419563 169.815473,226.283135 172.789875,228.034789 C174.813587,229.157703 176.559641,230.719122 177.899745,232.604319 C177.899745,232.604319 178.921719,232.10167 178.159052,229.969223 C177.113807,227.321604 175.269291,225.064469 172.881395,223.510954 L173.125449,223.510954 C175.402639,224.669086 177.576527,226.019474 179.623373,227.547372 C181.497507,223.227153 182.383358,218.543987 182.216442,213.838781 C182.420767,211.254036 182.061699,208.655774 181.163961,206.222898 C180.355534,204.699721 181.621561,204.09045 183.040122,205.689786 C182.796227,204.434683 182.391214,203.216242 181.835108,202.064625 L181.835108,201.942771 L181.835108,201.942771 C181.835108,201.942771 182.643535,200.891779 183.009616,200.510985 C184.017851,199.512423 185.121329,198.614565 186.304338,197.830194 C193.426685,193.429662 200.900803,189.624018 208.650486,186.452064 C214.96537,183.695114 220.197267,181.59313 221.265001,180.983859 C222.844357,179.962989 224.33892,178.816911 225.734231,177.556712 C230.987781,173.095259 234.542772,166.963506 235.801437,160.192497 C235.938416,159.294279 236.024987,158.389114 236.060744,157.481242 L236.060744,156.719654 L236.060744,156.262701 L236.060744,156.262701 L236.060744,156.07992 L236.060744,156.07992 L236.060744,155.881907 L236.060744,155.881907 C235.145544,152.454759 229.227246,149.88059 198.293466,146.986555 C187.373139,145.246463 178.613908,137.04253 176.176118,126.271351 L176.176118,126.408437 C175.733771,127.535588 175.337184,128.67797 174.940597,129.835585 C175.337184,128.693202 175.733771,127.55082 176.176118,126.408437 L176.176118,126.164729 C182.062397,110.771981 192.663652,97.6271082 206.469258,88.6031905 C207.262432,87.9634563 203.296562,88.77074 204.089736,88.115774 C206.718794,86.8290881 209.417753,85.6900095 212.174008,84.7038581 C213.562063,84.1250509 206.225204,81.3224057 199.742533,82.0078353 C195.768091,82.2215319 191.863414,83.1395867 188.211006,84.7190899 C189.73634,83.4091579 194.312343,81.6727364 193.229356,81.6727364 C184.940344,83.2750946 176.985952,86.2782407 169.7087,90.5528567 C169.694743,89.8163357 169.851348,89.0865495 170.1663,88.4204093 C164.370772,90.8727391 159.30635,94.7758513 155.462077,99.7528442 C155.5734,98.8739101 155.624363,97.9883993 155.614611,97.1025167 C152.961937,99.0778778 150.541599,101.346609 148.399779,103.865421 L148.262499,103.972044 C131.184758,97.3628611 112.568475,95.7771389 94.6164898,99.4025136 L94.4639564,99.2654276 L94.6469965,99.2654276 C90.9185824,96.2434045 87.6998936,92.6435724 85.1136568,88.6031905 L84.8696033,88.6641176 L84.5797898,88.3290187 C83.4052824,86.5925972 82.2002682,84.6276993 80.9647474,82.4343248 C80.0800535,80.911148 79.1801062,79.1290312 78.2801589,77.2859874 C78.2801589,77.1641333 78.1428788,77.118438 78.0818655,77.1032062 C77.7157852,77.1032062 77.4564784,78.7939324 77.1514115,78.3522111 L77.1514115,78.2608205 C74.0069369,70.0697328 72.5391074,61.332186 72.8347153,52.564829 L72.5906618,52.6866832 C67.5336779,56.1474063 63.7175154,61.1323558 61.6997745,66.9131539 C60.7693206,68.999906 60.1744402,70.1422885 59.5643064,71.2846711 C59.5643064,71.3760617 59.5643064,71.1323534 59.5643064,70.7515592 C59.7015865,69.7005673 60.1591868,67.5376563 60.0524134,67.7052058 C59.94564,67.8727552 59.8693733,67.9946093 59.7625999,68.146927 C58.2458719,69.8619847 56.9588879,71.7666891 55.9340107,73.8131445 C55.0032399,75.6824752 54.2376666,77.6293775 53.6460092,79.6316796 C53.5544891,79.9515467 53.6460092,79.3575078 53.6460092,78.6568465 C53.6460092,77.9561852 53.7832892,76.7071802 53.6460092,76.9661203 L53.3104356,77.6210863 C46.7042381,92.2483495 42.5804102,107.870992 41.1077608,123.8495 C40.7060753,126.561552 40.5478284,129.304016 40.6349071,132.044191 L40.6349071,132.287899 C35.9124033,137.427958 31.7360985,143.042936 28.1729255,149.042843 C16.2742557,169.112817 7.39831233,190.822216 1.83040122,213.473219 C5.77937173,204.835514 10.5016765,196.5717 15.939744,188.782524 C5.40879834,215.461093 0,243.88089 0,272.557244 C1.79381599,264.157931 4.08585694,255.872479 6.86400458,247.744696 C5.16649844,281.616731 11.6975332,315.396292 25.9001773,346.20284 C44.9435717,388.912366 76.6193932,424.779631 116.672825,448.986805 L116.672825,448.986805 C132.953172,459.994206 150.780575,468.525703 169.57142,474.302003 C172.042462,475.200677 174.54401,476.084119 177.106572,476.937098 C176.298144,476.617231 175.581237,476.266901 174.77281,475.91657 C197.041376,482.587026 220.163987,485.983808 243.412856,486 C325.689391,486 352.855596,454.71395 355.357144,451.591438 L355.357144,451.591438 C359.423225,447.925804 362.725073,443.49506 365.073524,438.553045 L365.073524,438.553045 C366.659872,437.903156 368.261473,437.207572 369.878327,436.466293 L370.900301,436.00934 L372.745956,435.141129 C385.146204,429.304439 396.805706,422.012858 407.477819,413.420629 C423.488116,401.965074 434.951737,385.249597 439.860667,366.20215 L439.860667,366.20215 C442.775817,359.272475 442.934021,351.493334 440.303014,344.451186 C441.147032,343.120945 442.016473,341.699314 442.911336,340.186291 C460.578544,311.83514 470.599312,279.401602 472,246.038738 L472,245.947347 C472,245.048673 472,244.149998 472,243.251324 C472.020876,236.173158 471.403157,229.107478 470.153807,222.140095 L470.153807,222.140095 Z" id="Path"></path>
        </g>
    </g>
</svg>