<?xml version="1.0" encoding="UTF-8"?>
<svg width="488px" height="488px" viewBox="0 0 488 488" version="1.1" xmlns="http://www.w3.org/2000/svg" xmlns:xlink="http://www.w3.org/1999/xlink">
    <!-- Generator: Sketch 59 (86127) - https://sketch.com -->
    <title>github</title>
    <desc>Created with Sketch.</desc>
    <g id="Page-1" stroke="none" stroke-width="1" fill="none" fill-rule="evenodd">
        <g id="github" transform="translate(1.000000, 0.000000)" fill="#D7D7DB">
            <path d="M243.002012,2.84217094e-14 C108.813297,2.84217094e-14 0,108.792357 0,243.00018 C0,350.364024 69.6274726,441.450863 166.179607,473.582354 C178.324074,475.831759 182.782679,468.310938 182.782679,461.892688 C182.782679,456.098155 182.557334,436.956076 182.45271,416.651067 C114.849315,431.35067 100.584194,387.9802 100.584194,387.9802 C89.5302339,359.892811 73.603196,352.424302 73.603196,352.424302 C51.5556365,337.34242 75.2651128,337.652267 75.2651128,337.652267 C99.6667191,339.366483 112.515388,362.693502 112.515388,362.693502 C134.188715,399.842897 169.3626,389.102891 183.229344,382.893888 C185.410358,367.188289 191.707936,356.468403 198.657404,350.40024 C144.683337,344.25562 87.9447733,323.419445 87.9447733,230.308543 C87.9447733,203.778435 97.4374167,182.101248 112.982173,165.083831 C110.459118,158.963355 102.141486,134.248063 115.33622,100.776586 C115.33622,100.776586 135.741983,94.2456649 182.179077,125.68503 C201.562741,120.300944 222.350785,117.600852 243.002012,117.508301 C263.653239,117.600852 284.457379,120.300944 303.877259,125.68503 C350.258017,94.2456649 370.635612,100.776586 370.635612,100.776586 C383.862538,134.248063 375.540882,158.963355 373.017827,165.083831 C388.598799,182.101248 398.027059,203.778435 398.027059,230.308543 C398.027059,323.640764 341.179847,344.191236 287.068963,350.207088 C295.784972,357.748029 303.551314,372.53616 303.551314,395.207271 C303.551314,427.721039 303.269634,453.888989 303.269634,461.892688 C303.269634,468.359226 307.643734,475.936383 319.961234,473.550162 C416.461056,441.382456 486,350.327808 486,243.00018 C486,108.792357 377.202799,2.84217094e-14 243.002012,2.84217094e-14" id="Fill-5"></path>
            <path d="M92.1571438,348.58463 C91.6126383,349.688866 89.6802582,350.020137 87.9198271,349.261894 C86.1266438,348.536779 85.1195135,347.031337 85.7008651,345.92342 C86.2330885,344.786057 88.1695627,344.469509 89.9586519,345.231432 C91.7559292,345.956547 92.7794357,347.476712 92.1571438,348.58463" id="Fill-6"></path>
            <path d="M101.354252,359.754268 C100.248054,360.897279 98.0855924,360.366442 96.6183446,358.559885 C95.1011643,356.75761 94.8169331,354.34744 95.9384942,353.187306 C97.0792601,352.044295 99.1764258,352.579412 100.697447,354.381688 C102.214627,356.205368 102.510381,358.598414 101.354252,359.754268" id="Fill-7"></path>
            <path d="M111.593279,373.538774 C110.087046,374.574632 107.624152,373.603264 106.101636,371.438844 C104.595404,369.274425 104.595404,366.678734 106.134203,365.638845 C107.660791,364.598957 110.087046,365.53405 111.629917,367.682347 C113.132079,369.883042 113.132079,372.478733 111.593279,373.538774" id="Fill-8"></path>
            <path d="M124.657591,387.656187 C123.376725,389.098064 120.648596,388.71093 118.651839,386.743657 C116.608644,384.819837 116.039801,382.090147 117.324536,380.64827 C118.620881,379.202443 121.364488,379.609329 123.376725,381.560801 C125.40444,383.48067 126.02359,386.230112 124.657591,387.656187" id="Fill-9"></path>
            <path d="M142.773871,394.944015 C142.162256,396.897797 139.317825,397.78588 136.452449,396.955625 C133.591261,396.100588 131.718713,393.812225 132.296815,391.83779 C132.891674,389.871616 135.748672,388.946357 138.634994,389.83444 C141.491992,390.685347 143.36873,392.957187 142.773871,394.944015" id="Fill-10"></path>
            <path d="M162.322499,396.706958 C162.392533,398.586167 160.003134,400.144628 157.045224,400.17859 C154.070834,400.238966 151.664957,398.71824 151.632,396.869219 C151.632,394.971142 153.967843,393.427775 156.942232,393.382493 C159.900143,393.329664 162.322499,394.839069 162.322499,396.706958" id="Fill-11"></path>
            <path d="M181.724139,393.386219 C182.07994,395.440803 180.015464,397.550345 177.06562,398.112608 C174.165423,398.653733 171.480363,397.385471 171.112149,395.347797 C170.75221,393.242482 172.853922,391.13294 175.749982,390.587587 C178.703962,390.063372 181.347651,391.297814 181.724139,393.386219" id="Fill-12"></path>
        </g>
    </g>
</svg>