<svg width="16" height="14" viewBox="0 0 16 14" fill="none" xmlns="http://www.w3.org/2000/svg">
<path fill-rule="evenodd" clip-rule="evenodd" d="M9 11H11L8 14L5 11H7V6H9V11ZM12 3C12 2.56 11.09 0 7.5 0C5.08 0 3 1.92 3 4C1.02 4 0 5.52 0 7C0 8.53 1 10 3 10C3.44 10 5.66 10 6 10V8.7H3C1.38 8.7 1.3 7.28 1.3 7C1.3 6.83 1.35 5.3 3 5.3H4.3V4C4.3 2.61 5.86 1.3 7.5 1.3C10.05 1.3 10.63 2.85 10.7 3.1V4.3H12C12.81 4.3 14.7 4.52 14.7 6.5C14.7 8.59 12.45 8.7 12 8.7H10V10C10.38 10 11.98 10 12 10C14.08 10 16 8.84 16 6.5C16 4.06 14.08 3 12 3Z" fill="#FFFFFF"/>
</svg>