<?xml version="1.0" encoding="UTF-8" standalone="no"?>
<!-- Created with Inkscape (http://www.inkscape.org/) -->

<svg
   xmlns:dc="http://purl.org/dc/elements/1.1/"
   xmlns:cc="http://creativecommons.org/ns#"
   xmlns:rdf="http://www.w3.org/1999/02/22-rdf-syntax-ns#"
   xmlns:svg="http://www.w3.org/2000/svg"
   xmlns="http://www.w3.org/2000/svg"
   xmlns:sodipodi="http://sodipodi.sourceforge.net/DTD/sodipodi-0.dtd"
   xmlns:inkscape="http://www.inkscape.org/namespaces/inkscape"
   width="120.77237mm"
   height="37.247684mm"
   viewBox="0 0 120.77237 37.247684"
   version="1.1"
   id="svg3694"
   inkscape:version="0.92.3 (2405546, 2018-03-11)"
   sodipodi:docname="crossfoam-logo.svg">
  <defs
     id="defs3688">
    <mask
       id="mask-2-3"
       fill="white">
      <path
         inkscape:connector-curvature="0"
         id="use2610-6"
         d="M 0,0 H 33.866667 V 31.720845 H 0 Z m 16.933333,28.451241 c 5.416519,0 9.807475,-4.364052 9.807475,-9.747383 0,-5.383332 -4.390956,-9.7473842 -9.807475,-9.7473842 -5.416519,0 -9.8074748,4.3640522 -9.8074748,9.7473842 0,5.383331 4.3909558,9.747383 9.8074748,9.747383 z"
         style="stroke-width:0.26458332" />
    </mask>
  </defs>
  <sodipodi:namedview
     id="base"
     pagecolor="#ffffff"
     bordercolor="#666666"
     borderopacity="1.0"
     inkscape:pageopacity="0.0"
     inkscape:pageshadow="2"
     inkscape:zoom="1.979899"
     inkscape:cx="40.52861"
     inkscape:cy="-1.5999687"
     inkscape:document-units="mm"
     inkscape:current-layer="layer1"
     showgrid="false"
     fit-margin-top="0"
     fit-margin-left="0"
     fit-margin-right="0"
     fit-margin-bottom="0"
     inkscape:window-width="1920"
     inkscape:window-height="1016"
     inkscape:window-x="0"
     inkscape:window-y="32"
     inkscape:window-maximized="1" />
  <metadata
     id="metadata3691">
    <rdf:RDF>
      <cc:Work
         rdf:about="">
        <dc:format>image/svg+xml</dc:format>
        <dc:type
           rdf:resource="http://purl.org/dc/dcmitype/StillImage" />
        <dc:title></dc:title>
      </cc:Work>
    </rdf:RDF>
  </metadata>
  <g
     inkscape:label="Layer 1"
     inkscape:groupmode="layer"
     id="layer1"
     transform="translate(240.30285,-93.167825)">
    <path
       inkscape:connector-curvature="0"
       id="Oval-3-Copy-5-9"
       d="m -220.5526,106.99854 c -3.94277,0 -7.16989,3.18339 -7.16989,7.08925 0,3.90587 3.22712,7.08967 7.16989,7.08967 3.94277,0 7.16988,-3.1838 7.16988,-7.08967 0,-3.90586 -3.22711,-7.08925 -7.16988,-7.08925 z m 0,2.23808 c 2.73318,0 4.91808,2.1624 4.91808,4.85117 0,2.68878 -2.1849,4.85117 -4.91808,4.85117 -2.73319,0 -4.91768,-2.16239 -4.91768,-4.85117 0,-2.68877 2.18449,-4.85117 4.91768,-4.85117 z"
       style="color:#000000;font-style:normal;font-variant:normal;font-weight:normal;font-stretch:normal;font-size:medium;line-height:normal;font-family:sans-serif;font-variant-ligatures:normal;font-variant-position:normal;font-variant-caps:normal;font-variant-numeric:normal;font-variant-alternates:normal;font-feature-settings:normal;text-indent:0;text-align:start;text-decoration:none;text-decoration-line:none;text-decoration-style:solid;text-decoration-color:#000000;letter-spacing:normal;word-spacing:normal;text-transform:none;writing-mode:lr-tb;direction:ltr;text-orientation:mixed;dominant-baseline:auto;baseline-shift:baseline;text-anchor:start;white-space:normal;shape-padding:0;clip-rule:nonzero;display:inline;overflow:visible;visibility:visible;opacity:1;isolation:auto;mix-blend-mode:normal;color-interpolation:sRGB;color-interpolation-filters:linearRGB;solid-color:#000000;solid-opacity:1;vector-effect:none;fill:#ff5656;fill-opacity:1;fill-rule:evenodd;stroke:none;stroke-width:10.64329433;stroke-linecap:butt;stroke-linejoin:miter;stroke-miterlimit:4;stroke-dasharray:none;stroke-dashoffset:0;stroke-opacity:1;color-rendering:auto;image-rendering:auto;shape-rendering:auto;text-rendering:auto;enable-background:accumulate" />
    <ellipse
       style="fill:#ff5656;fill-opacity:1;fill-rule:evenodd;stroke:none;stroke-width:1.19737053"
       id="ellipse2623-3"
       cx="-220.55244"
       cy="114.08794"
       rx="2.3245935"
       ry="2.2962801" />
    <path
       style="color:#000000;font-style:normal;font-variant:normal;font-weight:normal;font-stretch:normal;font-size:medium;line-height:normal;font-family:sans-serif;font-variant-ligatures:normal;font-variant-position:normal;font-variant-caps:normal;font-variant-numeric:normal;font-variant-alternates:normal;font-feature-settings:normal;text-indent:0;text-align:start;text-decoration:none;text-decoration-line:none;text-decoration-style:solid;text-decoration-color:#000000;letter-spacing:normal;word-spacing:normal;text-transform:none;writing-mode:lr-tb;direction:ltr;text-orientation:mixed;dominant-baseline:auto;baseline-shift:baseline;text-anchor:start;white-space:normal;shape-padding:0;clip-rule:nonzero;display:inline;overflow:visible;visibility:visible;opacity:1;isolation:auto;mix-blend-mode:normal;color-interpolation:sRGB;color-interpolation-filters:linearRGB;solid-color:#000000;solid-opacity:1;vector-effect:none;fill:#ff5656;fill-opacity:1;fill-rule:evenodd;stroke:none;stroke-width:11.39508724;stroke-linecap:butt;stroke-linejoin:miter;stroke-miterlimit:4;stroke-dasharray:none;stroke-dashoffset:0;stroke-opacity:1;color-rendering:auto;image-rendering:auto;shape-rendering:auto;text-rendering:auto;enable-background:accumulate"
       d="m -220.55261,97.007439 c -4.22127,0 -7.67615,3.408621 -7.67615,7.590381 0,1.15187 0.26265,2.24481 0.73072,3.22422 0.56953,-0.61653 1.22175,-1.15707 1.93858,-1.60488 -0.16756,-0.50916 -0.25837,-1.05327 -0.25837,-1.61934 0,-2.8787 2.33898,-5.194139 5.26522,-5.194139 2.92624,0 5.26566,2.315439 5.26566,5.194139 0,0.56611 -0.0909,1.11025 -0.25848,1.61945 0.71685,0.44782 1.36902,0.98834 1.93859,1.60488 0.46815,-0.97944 0.73081,-2.07242 0.73081,-3.22433 0,-4.18176 -3.45531,-7.590383 -7.67658,-7.590381 z"
       id="Oval-3-Copy-5-9-2"
       inkscape:connector-curvature="0"
       sodipodi:nodetypes="sscccssccss" />
    <path
       style="color:#000000;font-style:normal;font-variant:normal;font-weight:normal;font-stretch:normal;font-size:medium;line-height:normal;font-family:sans-serif;font-variant-ligatures:normal;font-variant-position:normal;font-variant-caps:normal;font-variant-numeric:normal;font-variant-alternates:normal;font-feature-settings:normal;text-indent:0;text-align:start;text-decoration:none;text-decoration-line:none;text-decoration-style:solid;text-decoration-color:#000000;letter-spacing:normal;word-spacing:normal;text-transform:none;writing-mode:lr-tb;direction:ltr;text-orientation:mixed;dominant-baseline:auto;baseline-shift:baseline;text-anchor:start;white-space:normal;shape-padding:0;clip-rule:nonzero;display:inline;overflow:visible;visibility:visible;opacity:1;isolation:auto;mix-blend-mode:normal;color-interpolation:sRGB;color-interpolation-filters:linearRGB;solid-color:#000000;solid-opacity:1;vector-effect:none;fill:#ff5656;fill-opacity:1;fill-rule:evenodd;stroke:none;stroke-width:11.39508724;stroke-linecap:butt;stroke-linejoin:miter;stroke-miterlimit:4;stroke-dasharray:none;stroke-dashoffset:0;stroke-opacity:1;color-rendering:auto;image-rendering:auto;shape-rendering:auto;text-rendering:auto;enable-background:accumulate"
       d="m -211.53531,111.43249 c 0.24171,0.79959 0.37723,1.64379 0.39023,2.51676 2.22536,0.60856 3.84086,2.61132 3.84086,5.00364 0,2.8787 -2.33898,5.19414 -5.26522,5.19414 -1.54786,0 -2.93129,-0.64794 -3.89127,-1.68432 -0.75976,0.36491 -1.57586,0.63185 -2.43148,0.78353 1.38784,1.98908 3.70818,3.29703 6.32275,3.29703 4.22127,0 7.67659,-3.40862 7.67659,-7.59038 0,-3.83449 -2.90541,-7.01801 -6.64246,-7.5204 z"
       id="Oval-3-Copy-5-9-2-8"
       inkscape:connector-curvature="0"
       sodipodi:nodetypes="ccssccssc" />
    <path
       style="color:#000000;font-style:normal;font-variant:normal;font-weight:normal;font-stretch:normal;font-size:medium;line-height:normal;font-family:sans-serif;font-variant-ligatures:normal;font-variant-position:normal;font-variant-caps:normal;font-variant-numeric:normal;font-variant-alternates:normal;font-feature-settings:normal;text-indent:0;text-align:start;text-decoration:none;text-decoration-line:none;text-decoration-style:solid;text-decoration-color:#000000;letter-spacing:normal;word-spacing:normal;text-transform:none;writing-mode:lr-tb;direction:ltr;text-orientation:mixed;dominant-baseline:auto;baseline-shift:baseline;text-anchor:start;white-space:normal;shape-padding:0;clip-rule:nonzero;display:inline;overflow:visible;visibility:visible;opacity:1;isolation:auto;mix-blend-mode:normal;color-interpolation:sRGB;color-interpolation-filters:linearRGB;solid-color:#000000;solid-opacity:1;vector-effect:none;fill:#ff5656;fill-opacity:1;fill-rule:evenodd;stroke:none;stroke-width:11.39508724;stroke-linecap:butt;stroke-linejoin:miter;stroke-miterlimit:4;stroke-dasharray:none;stroke-dashoffset:0;stroke-opacity:1;color-rendering:auto;image-rendering:auto;shape-rendering:auto;text-rendering:auto;enable-background:accumulate"
       d="m -229.57001,111.43412 c -3.73141,0.50747 -6.63077,3.68829 -6.63077,7.51877 0,4.18176 3.45532,7.59038 7.67659,7.59038 2.61381,0 4.93357,-1.30719 6.32155,-3.29529 -0.85644,-0.15084 -1.67343,-0.41691 -2.434,-0.78136 -0.95983,1.03407 -2.34166,1.68041 -3.88755,1.68041 -2.92624,0 -5.26522,-2.31544 -5.26522,-5.19414 0,-2.38834 1.61009,-4.38852 3.82971,-5.0007 0.0127,-0.87342 0.14803,-1.71807 0.38969,-2.51807 z"
       id="Oval-3-Copy-5-9-2-8-9"
       inkscape:connector-curvature="0"
       sodipodi:nodetypes="cssccsscc" />
    <g
       aria-label="crossfoam"
       style="font-style:normal;font-variant:normal;font-weight:normal;font-stretch:normal;font-size:18.91059685px;line-height:1.25;font-family:Futrista;-inkscape-font-specification:Futrista;letter-spacing:0px;word-spacing:0px;fill:#333333;fill-opacity:1;stroke:none;stroke-width:0.26458341"
       id="text4749-6-0-4-1-3-3-3-20-4-2-9">
      <path
         d="m -180.56473,108.68087 c -2.15581,0 -3.13916,1.49394 -3.13916,4.80329 0,3.27154 0.96444,4.76547 3.13916,4.76547 2.00452,0 2.77985,-1.68304 2.77985,-3.59301 h -1.39938 c 0,1.51285 -0.3593,2.326 -1.38047,2.326 -1.15355,0 -1.64523,-1.0779 -1.64523,-3.19589 v -0.64296 c 0,-2.09907 0.49168,-3.17698 1.64523,-3.17698 1.02117,0 1.30483,0.73752 1.30483,2.3071 h 1.47502 c 0,-2.3071 -0.79424,-3.59302 -2.77985,-3.59302 z"
         style="font-style:normal;font-variant:normal;font-weight:normal;font-stretch:normal;font-family:'Pragati Narrow';-inkscape-font-specification:'Pragati Narrow';fill:#333333;stroke-width:0.26458341"
         id="path821" />
      <path
         d="m -173.22831,108.68087 c -0.8888,0 -1.34265,0.71861 -1.55067,1.4183 h -0.0945 l -0.20802,-1.21028 h -1.0779 v 9.15273 h 1.4372 v -5.57863 c 0,-1.62631 0.79425,-2.15581 1.68305,-2.15581 h 0.47276 v -1.49393 c 0,0 -0.28366,-0.13238 -0.66187,-0.13238 z"
         style="font-style:normal;font-variant:normal;font-weight:normal;font-stretch:normal;font-family:'Pragati Narrow';-inkscape-font-specification:'Pragati Narrow';fill:#333333;stroke-width:0.26458341"
         id="path823" />
      <path
         d="m -168.46372,108.68087 c -2.1369,0 -3.29045,1.49394 -3.29045,4.80329 0,3.27154 1.15355,4.76547 3.29045,4.76547 2.11798,0 3.27153,-1.49393 3.27153,-4.76547 0,-3.30935 -1.15355,-4.80329 -3.27153,-4.80329 z m 0,1.28592 c 1.17245,0 1.77759,1.07791 1.77759,3.17698 v 0.64296 c 0,2.11799 -0.60514,3.19589 -1.77759,3.19589 -1.19137,0 -1.79651,-1.0779 -1.79651,-3.19589 v -0.64296 c 0,-2.09907 0.60514,-3.17698 1.79651,-3.17698 z"
         style="font-style:normal;font-variant:normal;font-weight:normal;font-stretch:normal;font-family:'Pragati Narrow';-inkscape-font-specification:'Pragati Narrow';fill:#333333;stroke-width:0.26458341"
         id="path825" />
      <path
         d="m -160.86314,108.68087 c -1.73978,0 -2.83659,1.00226 -2.83659,2.60967 0,3.29044 4.16033,2.04234 4.16033,4.34943 0,0.8888 -0.62405,1.36157 -1.38047,1.36157 -0.81316,0 -1.49394,-0.49168 -1.49394,-1.62632 v -0.1891 h -1.49394 c 0,0.0378 -0.0189,0.13237 -0.0189,0.37821 0,1.36156 0.85098,2.6853 2.95005,2.6853 1.68305,0 2.91224,-0.85097 2.91224,-2.81767 0,-3.40391 -4.16033,-2.25037 -4.16033,-4.23598 0,-0.51058 0.20801,-1.2481 1.22918,-1.2481 0.96444,0 1.26701,0.69969 1.26701,1.4183 v 0.17019 h 1.47503 c 0,-0.0378 0.0189,-0.22692 0.0189,-0.34039 0,-1.36156 -0.92662,-2.51511 -2.62857,-2.51511 z"
         style="font-style:normal;font-variant:normal;font-weight:normal;font-stretch:normal;font-family:'Pragati Narrow';-inkscape-font-specification:'Pragati Narrow';fill:#333333;stroke-width:0.26458341"
         id="path827" />
      <path
         d="m -153.73473,108.68087 c -1.73978,0 -2.83659,1.00226 -2.83659,2.60967 0,3.29044 4.16033,2.04234 4.16033,4.34943 0,0.8888 -0.62405,1.36157 -1.38048,1.36157 -0.81315,0 -1.49393,-0.49168 -1.49393,-1.62632 v -0.1891 h -1.49394 c 0,0.0378 -0.0189,0.13237 -0.0189,0.37821 0,1.36156 0.85098,2.6853 2.95005,2.6853 1.68305,0 2.91223,-0.85097 2.91223,-2.81767 0,-3.40391 -4.16033,-2.25037 -4.16033,-4.23598 0,-0.51058 0.20802,-1.2481 1.22919,-1.2481 0.96444,0 1.26701,0.69969 1.26701,1.4183 v 0.17019 h 1.47503 c 0,-0.0378 0.0189,-0.22692 0.0189,-0.34039 0,-1.36156 -0.92662,-2.51511 -2.62857,-2.51511 z"
         style="font-style:normal;font-variant:normal;font-weight:normal;font-stretch:normal;font-family:'Pragati Narrow';-inkscape-font-specification:'Pragati Narrow';fill:#333333;stroke-width:0.26458341"
         id="path829" />
      <path
         d="m -147.4573,105.3337 c -1.39939,0 -1.81542,1.05899 -1.81542,2.09907 v 1.45612 h -0.81315 v 1.28592 h 0.81315 v 7.86681 h 1.4183 v -7.86681 h 1.58849 v -1.28592 h -1.58849 v -1.53176 c 0,-0.5295 0.26474,-0.81315 0.83206,-0.81315 h 0.75643 v -1.00227 c -0.30257,-0.11346 -0.79425,-0.20801 -1.19137,-0.20801 z"
         style="font-style:normal;font-variant:normal;font-weight:normal;font-stretch:normal;font-family:'Pragati Narrow';-inkscape-font-specification:'Pragati Narrow';fill:#333333;stroke-width:0.26458341"
         id="path831" />
      <path
         d="m -142.27698,108.68087 c -2.1369,0 -3.29045,1.49394 -3.29045,4.80329 0,3.27154 1.15355,4.76547 3.29045,4.76547 2.11799,0 3.27153,-1.49393 3.27153,-4.76547 0,-3.30935 -1.15354,-4.80329 -3.27153,-4.80329 z m 0,1.28592 c 1.17246,0 1.77759,1.07791 1.77759,3.17698 v 0.64296 c 0,2.11799 -0.60513,3.19589 -1.77759,3.19589 -1.19137,0 -1.79651,-1.0779 -1.79651,-3.19589 v -0.64296 c 0,-2.09907 0.60514,-3.17698 1.79651,-3.17698 z"
         style="font-style:normal;font-variant:normal;font-weight:normal;font-stretch:normal;font-family:'Pragati Narrow';-inkscape-font-specification:'Pragati Narrow';fill:#333333;stroke-width:0.26458341"
         id="path833" />
      <path
         d="m -134.43056,108.68087 c -1.72086,0 -2.93114,0.8888 -2.93114,2.53402 0,0.15129 0,0.30257 0.0189,0.39713 h 1.39938 v -0.22693 c 0,-0.68078 0.32148,-1.4183 1.4183,-1.4183 1.15354,0 1.4372,0.60514 1.4372,1.47503 v 1.17246 c -2.66639,0 -4.63309,0.5484 -4.63309,3.06351 0,2.21254 1.49393,2.57184 2.40164,2.57184 0.96444,0 1.75869,-0.43494 2.23145,-1.19136 h 0.0946 c 0.15128,0.66187 0.68078,1.11572 1.4372,1.11572 0.45386,0 0.77534,-0.11346 0.94553,-0.20801 v -0.98336 h -0.58623 c -0.22692,0 -0.45385,-0.1891 -0.45385,-0.60513 v -5.14369 c 0,-1.6074 -0.92662,-2.55293 -2.77986,-2.55293 z m 1.34265,5.21933 v 0.81315 c 0,1.51285 -0.98335,2.26927 -1.89106,2.26927 -0.81315,0 -1.2481,-0.3593 -1.2481,-1.39938 0,-1.41829 1.28592,-1.68304 3.13916,-1.68304 z"
         style="font-style:normal;font-variant:normal;font-weight:normal;font-stretch:normal;font-family:'Pragati Narrow';-inkscape-font-specification:'Pragati Narrow';fill:#333333;stroke-width:0.26458341"
         id="path835" />
      <path
         d="m -121.68629,108.68087 c -0.86989,0 -1.73978,0.45386 -2.23145,1.34266 -0.34039,-0.94553 -1.04009,-1.34266 -1.94779,-1.34266 -0.86989,0 -1.58849,0.37821 -2.08017,1.28592 h -0.0945 l -0.20802,-1.0779 h -1.0779 v 9.15273 h 1.4372 v -5.57863 c 0,-1.58849 0.73751,-2.4962 1.56958,-2.4962 0.68078,0 1.19137,0.32148 1.19137,1.58849 v 6.48634 h 1.4372 v -5.57863 c 0,-1.58849 0.6997,-2.4962 1.55067,-2.4962 0.68078,0 1.17246,0.32148 1.17246,1.58849 v 6.48634 h 1.43721 v -6.58089 c 0,-2.04234 -0.86989,-2.77986 -2.15581,-2.77986 z"
         style="font-style:normal;font-variant:normal;font-weight:normal;font-stretch:normal;font-family:'Pragati Narrow';-inkscape-font-specification:'Pragati Narrow';fill:#333333;stroke-width:0.26458341"
         id="path837" />
    </g>
  </g>
</svg>
