<?xml version="1.0" encoding="UTF-8"?>
<svg width="358px" height="208px" viewBox="0 0 358 208" version="1.1" xmlns="http://www.w3.org/2000/svg" xmlns:xlink="http://www.w3.org/1999/xlink">
    <!-- Generator: Sketch 51.3 (57544) - http://www.bohemiancoding.com/sketch -->
    <title>intro-cluster</title>
    <desc>Created with Sketch.</desc>
    <defs>
        <rect id="path-1" x="0" y="0" width="350" height="200"></rect>
        <filter x="-2.0%" y="-2.5%" width="104.0%" height="107.0%" filterUnits="objectBoundingBox" id="filter-2">
            <feOffset dx="0" dy="2" in="SourceAlpha" result="shadowOffsetOuter1"></feOffset>
            <feGaussianBlur stdDeviation="2" in="shadowOffsetOuter1" result="shadowBlurOuter1"></feGaussianBlur>
            <feColorMatrix values="0 0 0 0 0   0 0 0 0 0   0 0 0 0 0  0 0 0 0.22339221 0" type="matrix" in="shadowBlurOuter1"></feColorMatrix>
        </filter>
    </defs>
    <g id="Page-1" stroke="none" stroke-width="1" fill="none" fill-rule="evenodd">
        <g id="Artboard-14" transform="translate(-2275.000000, -235.000000)">
            <g id="Group-3-Copy" transform="translate(2279.000000, 237.000000)">
                <g id="Mask" fill="black" fill-opacity="1">
                    <use filter="url(#filter-2)" xlink:href="#path-1"></use>
                </g>
                <g id="Bildschirmfoto-2019-08-28-um-20.34.08"></g>
                <rect id="Mask" fill="#FFFFFF" x="0" y="0" width="350" height="200"></rect>
                <g id="Group-5" transform="translate(60.000000, 33.000000)" stroke="#979797" stroke-linecap="square" stroke-width="1.2">
                    <path d="M151.670918,132.400901 L233.201531,91.6621622" id="Line"></path>
                    <path d="M233.201531,91.6621622 L209.221939,55.7162162" id="Line-2"></path>
                    <path d="M209.221939,55.7162162 L151.670918,131.202703" id="Line-3"></path>
                    <path d="M72.5382653,131.202703 L151.670918,131.202703" id="Line-4"></path>
                    <path d="M71.3392857,130.004505 L234.40051,90.463964" id="Line-5"></path>
                    <path d="M208.022959,56.9144144 L176.84949,0.599099099" id="Line-6"></path>
                    <path d="M176.84949,0.599099099 L98.9158163,83.2747748" id="Line-7"></path>
                    <path d="M98.9158163,83.2747748 L49.7576531,14.9774775" id="Line-8"></path>
                    <path d="M49.7576531,14.9774775 L0.599489796,56.9144144" id="Line-9"></path>
                    <path d="M0.599489796,56.9144144 L16.1862245,98.8513514" id="Line-10"></path>
                    <path d="M16.1862245,98.8513514 L176.84949,0.599099099" id="Line-11"></path>
                    <path d="M98.9158163,82.0765766 L1.79846939,55.7162162" id="Line-12"></path>
                    <path d="M49.7576531,14.9774775 L178.048469,0.599099099" id="Line-13"></path>
                    <path d="M16.1862245,98.8513514 L50.9566327,14.9774775" id="Line-14"></path>
                </g>
                <g id="Group-6" transform="translate(54.000000, 27.000000)" fill="#FFFFFF" stroke="#FFFFFF" stroke-width="4.8">
                    <ellipse id="Oval" cx="56.4" cy="21.5702479" rx="7.2" ry="7.19008264"></ellipse>
                    <ellipse id="Oval-Copy-2" cx="7.2" cy="62.3140496" rx="7.2" ry="7.19008264"></ellipse>
                    <ellipse id="Oval-Copy-3" cx="21.6" cy="104.256198" rx="7.2" ry="7.19008264"></ellipse>
                    <ellipse id="Oval-Copy-4" cx="104.4" cy="89.8760331" rx="7.2" ry="7.19008264"></ellipse>
                    <ellipse id="Oval-Copy-5" cx="182.4" cy="7.19008264" rx="7.2" ry="7.19008264"></ellipse>
                    <ellipse id="Oval-Copy" cx="157.2" cy="137.809917" rx="7.2" ry="7.19008264"></ellipse>
                    <ellipse id="Oval-Copy-6" cx="78" cy="137.809917" rx="7.2" ry="7.19008264"></ellipse>
                    <ellipse id="Oval-Copy-7" cx="238.8" cy="97.0661157" rx="7.2" ry="7.19008264"></ellipse>
                    <ellipse id="Oval-Copy-8" cx="214.8" cy="62.3140496" rx="7.2" ry="7.19008264"></ellipse>
                </g>
                <g id="Group-6" transform="translate(54.000000, 27.000000)">
                    <ellipse id="Oval" fill="#13E6D2" cx="56.4" cy="21.5702479" rx="7.2" ry="7.19008264"></ellipse>
                    <ellipse id="Oval-Copy-2" fill="#13E6D2" cx="7.2" cy="62.3140496" rx="7.2" ry="7.19008264"></ellipse>
                    <ellipse id="Oval-Copy-3" fill="#13E6D2" cx="21.6" cy="104.256198" rx="7.2" ry="7.19008264"></ellipse>
                    <ellipse id="Oval-Copy-4" fill="#13E6D2" cx="104.4" cy="89.8760331" rx="7.2" ry="7.19008264"></ellipse>
                    <ellipse id="Oval-Copy-5" fill="#13E6D2" cx="182.4" cy="7.19008264" rx="7.2" ry="7.19008264"></ellipse>
                    <ellipse id="Oval-Copy" fill="#FF7D25" cx="157.2" cy="137.809917" rx="7.2" ry="7.19008264"></ellipse>
                    <ellipse id="Oval-Copy-6" fill="#FF7D25" cx="78" cy="137.809917" rx="7.2" ry="7.19008264"></ellipse>
                    <ellipse id="Oval-Copy-7" fill="#FF7D25" cx="238.8" cy="97.0661157" rx="7.2" ry="7.19008264"></ellipse>
                    <ellipse id="Oval-Copy-8" fill="#FF7D25" cx="214.8" cy="62.3140496" rx="7.2" ry="7.19008264"></ellipse>
                </g>
                <rect id="Mask" stroke="#666666" stroke-width="3" x="1.5" y="1.5" width="347" height="197"></rect>
            </g>
        </g>
    </g>
</svg>